<?xml version="1.0" encoding="utf-8"?>
<!-- Generator: Adobe Illustrator 22.0.1, SVG Export Plug-In . SVG Version: 6.00 Build 0)  -->
<svg version="1.1" id="LogoSvg" xmlns="http://www.w3.org/2000/svg" xmlns:xlink="http://www.w3.org/1999/xlink" x="0px" y="0px"
	 viewBox="0 0 768 188" style="enable-background:new 0 0 768 188;" xml:space="preserve">
<style type="text/css">
	.st0{fill:#AFB4D2;}
	.st1{fill:#9E9E9F;}
	.st2{fill:#B1CDE5;}
	.st3{fill:#DDDDDD;}
	.st4{fill:#88888A;}
	.st5{fill:#E3E7F1;}
	.st6{fill:#8CBADD;}
	.st7{fill:#E5E5E6;}
	.st8{fill:#9295BC;}
	.st9{fill:#E4E4E4;}
	.st10{fill:#74759F;}
	.st11{fill:#CBCCCE;}
	.st12{fill:#A8A8AA;}
	.st13{fill:#5B5681;}
	.st14{fill:#B4B4B5;}
	.st15{fill:#B2B2B3;}
	.st16{fill:#C7C6D7;}
	.st17{fill:#C4C6DB;}
	.st18{fill:#DADBDB;}
	.st19{fill:#595D97;}
	.st20{fill:#E0E0E0;}
	.st21{fill:#919294;}
	.st22{fill:#DCDDDE;}
	.st23{fill:#646AA3;}
	.st24{fill:#D5D5E2;}
	.st25{fill:#E8E8E9;}
	.st26{fill:#DBDBDB;}
	.st27{fill:#555556;}
	.st28{fill:#6A6B6D;}
	.st29{fill:#F2F2F2;}
	.st30{fill:#7B7C7E;}
	.st31{fill:#BEBEBF;}
	.st32{fill:#CED0E2;}
	.st33{fill:#DDDDDE;}
	.st34{fill:#5F5F60;}
	.st35{fill:#DADADA;}
	.st36{fill:#6E6F71;}
	.st37{fill:#4A4A4C;}
	.st38{fill:#ECECED;}
	.st39{fill:#282A6F;}
	.st40{fill:#4A58A0;}
	.st41{fill:#5D629C;}
	.st42{fill:#2D5BA7;}
	.st43{fill:#363674;}
	.st44{fill:#515153;}
	.st45{fill:#4E4E4F;}
	.st46{fill:#444445;}
	.st47{fill:#565758;}
	.st48{fill:#49494B;}
	.st49{fill:#646567;}
	.st50{fill:#616163;}
	.st51{fill:#5D5D5F;}
	.st52{fill:#1C7ABE;}
	.st53{fill:#2B378B;}
	.st54{fill:#30A2D9;}
	.st55{fill:#5F8BC1;}
	.st56{fill:#8BB3D8;}
	.st57{fill:#354495;}
	.st58{fill:#6B6C6E;}
	.st59{fill:#6D6E70;}
	.st60{fill:#767779;}
	.st61{fill:#747678;}
	.st62{fill:#727375;}
	.st63{fill:#5E5E60;}
	.st64{fill:#707173;}
	.st65{fill:#666769;}
	.st66{fill:#626365;}
	.st67{fill:#616263;}
	.st68{fill:#6EA9D5;}
	.st69{fill:#3798D0;}
	.st70{fill:#7F98C7;}
	.st71{fill:#7D7F81;}
	.st72{fill:#8A8B8D;}
	.st73{fill:#87888A;}
	.st74{fill:#1C1651;}
	.st75{fill:#1E1A56;}
	.st76{fill:#4A477A;}
	.st77{fill:#211A53;}
	.st78{fill:#777879;}
	.st79{fill:#2A3C92;}
	.st80{fill:#5D87BF;}
	.st81{fill:#262B77;}
	.st82{fill:#254C9E;}
	.st83{fill:#999A9C;}
	.st84{fill:#737476;}
	.st85{fill:#77787A;}
	.st86{fill:#757678;}
	.st87{fill:#7A7B7D;}
	.st88{fill:#68696B;}
	.st89{fill:#2C3076;}
	.st90{fill:#333475;}
	.st91{fill:#2A2F79;}
	.st92{fill:#2A317E;}
	.st93{fill:#2A3487;}
	.st94{fill:#283181;}
	.st95{fill:#BABBBC;}
	.st96{fill:#262A73;}
	.st97{fill:#2A378D;}
	.st98{fill:#2A3383;}
	.st99{fill:#364595;}
	.st100{fill:#365AA5;}
	.st101{fill:#284497;}
	.st102{fill:#4B4B4C;}
	.st103{fill:#58595A;}
	.st104{fill:#474748;}
	.st105{fill:#4A4A4B;}
	.st106{fill:#59595B;}
	.st107{fill:#1D7FC2;}
	.st108{fill:#1F67B0;}
	.st109{fill:#1D6DB5;}
	.st110{fill:#1B75BB;}
	.st111{fill:#1C71B8;}
	.st112{fill:#2291CE;}
	.st113{fill:#2A4397;}
	.st114{fill:#2A3D92;}
	.st115{fill:#2062AD;}
	.st116{fill:#1F86C7;}
	.st117{fill:#208BCA;}
	.st118{fill:#2296D2;}
	.st119{fill:#2259A6;}
	.st120{fill:#27489A;}
	.st121{fill:#1E86C7;}
	.st122{fill:#1C77BC;}
	.st123{fill:#1D7CC0;}
	.st124{fill:#2355A4;}
	.st125{fill:#23266E;}
	.st126{fill:#1F1C5C;}
	.st127{fill:#212265;}
	.st128{fill:#283284;}
	.st129{fill:#284396;}
	.st130{fill:#242973;}
	.st131{fill:#293488;}
	.st132{fill:#225BA8;}
	.st133{fill:#22246A;}
	.st134{fill:#2451A1;}
	.st135{fill:#252B78;}
	.st136{fill:#262E7C;}
	.st137{fill:#293487;}
	.st138{fill:#215EAA;}
	.st139{fill:#254E9F;}
	.st140{fill:#2453A2;}
	.st141{fill:#1D80C3;}
	.st142{fill:#201F61;}
	.st143{fill:#272F7E;}
	.st144{fill:#2061AD;}
</style>
<path d="M273.3,100.4h45.1l-3.4,16.3h-2.7c0.2-1.7,0.3-3,0.3-3.9c0-6.6-3.3-9.9-9.9-9.9h-2.3l-9.4,44h7.6l-0.5,2.6h-26.6l0.5-2.6
	h7.4l9.4-44c-3.8-0.1-7,0.8-9.4,2.5c-2.5,1.7-5.5,5.5-8.9,11.3h-2.7L273.3,100.4z"/>
<path d="M324.8,150.4c-4.1,0-7.5-1.1-10.1-3.2c-2.6-2.1-3.9-5-3.9-8.7c0-5.1,2.2-9.4,6.7-13.1c4.5-3.6,9.4-5.5,14.8-5.5
	c4,0,7.4,1,10,3c2.7,2,4,4.9,4,8.7c0,5-2.2,9.4-6.5,13.1C335.6,148.5,330.6,150.4,324.8,150.4z M331.5,121.9c-1.8,0-3.4,0.7-4.7,2
	s-2.7,4.7-4,10.2c-1.4,5.5-2.1,8.7-2.1,9.8c0,1.2,0.4,2.3,1.2,3.1c0.8,0.9,1.9,1.3,3.4,1.3c1.9,0,3.5-0.6,4.8-1.8
	c1.3-1.2,2.7-4.6,4.2-10.3c1.5-5.7,2.2-9,2.2-10.1C336.5,123.3,334.8,121.9,331.5,121.9z"/>
<path d="M352.2,149.5l12.2-46.9H359l0.6-2.2h5.7c1.4,0,3.1-0.1,5.3-0.4l2.9-0.4h1.5l-13.1,49.9H352.2z M386.4,139.3l2,0.9
	c-3,6.6-6.9,10-11.8,10c-1.9,0-3.3-0.5-4.4-1.6c-1-1.1-1.6-2.5-1.6-4.2c0-1.5,0.2-2.9,0.7-4c0.5-1.1,0.9-2.3,1.2-3.4s0.5-2,0.5-2.7
	c0-0.4-0.3-0.8-1-1.4c-1.3,1.1-2.4,1.6-3.4,1.6c-1.1,0-1.6-0.5-1.6-1.5c0-0.6,0.4-1.2,1.1-1.8c0.7-0.5,1.8-0.7,3.2-0.5
	c0.7-0.7,2.1-2.7,4.2-5.9c2.1-3.3,4.6-4.9,7.5-4.9c1.5,0,2.7,0.4,3.7,1.3s1.5,2,1.5,3.5c0,1.4-0.4,2.5-1.3,3.3
	c-0.9,0.7-1.8,1.1-2.8,1.1c-1,0-1.9-0.4-2.6-1.1c-0.7-0.7-1-1.3-1-1.6l0.1-1.8c-0.3-0.5-0.6-0.7-0.9-0.7c-0.8,0-1.8,1-3,3.1
	c-1.2,2.1-2.2,3.5-2.8,4.2c4.5,1,6.7,3.4,6.7,7.4c0,0.5-0.1,1.5-0.4,3.1c-0.2,1.6-0.4,2.4-0.4,2.6c0,0.9,0.3,1.3,1,1.3
	c1.3,0,2.8-1.6,4.5-4.7C385.5,140.7,385.8,140.2,386.4,139.3z"/>
<path d="M437.7,100l-3,14.4h-2.6c-0.6-8.4-4.6-12.6-12.2-12.6c-2.6,0-4.8,0.6-6.4,1.9s-2.5,2.8-2.5,4.7c0,1.6,0.7,3.1,2.1,4.4
	c1.4,1.3,3.6,2.6,6.7,3.9c3.1,1.3,5.6,2.5,7.4,3.5c1.8,1.1,3.4,2.6,4.7,4.6c1.3,2,1.9,4.6,1.9,7.8c0,5-1.9,9.2-5.7,12.7
	s-8.3,5.1-13.5,5.1c-2.5,0-4.5-0.3-6.2-1c-3.5-1.6-5.9-2.3-7.2-2.3c-1.5,0-2.7,0.8-3.6,2.3h-2.8l3.2-15.3h2.5c0.7,4.6,2.3,8,5,10.3
	c2.6,2.3,5.8,3.4,9.3,3.4c3.5,0,6.2-1,8.3-3.1c2-2.1,3.1-4.4,3.1-7c0-1.6-0.6-3.1-1.8-4.4s-4.1-2.9-8.7-4.7
	c-4.6-1.8-7.8-3.9-9.6-6.3c-1.8-2.4-2.7-5.1-2.7-8.1c0-4,1.6-7.5,4.8-10.4c3.2-2.9,7.1-4.4,11.8-4.4c1.7,0,3.1,0.1,4.2,0.4
	c1.1,0.3,2.6,0.7,4.4,1.4c1.8,0.7,3,1,3.4,1c1.1,0,2.2-0.7,3.1-2.1H437.7z"/>
<path d="M465.1,120.7h9.9l-5.1,19.7c-0.4,2-0.7,3.2-0.7,3.8c0,1.2,0.4,1.8,1.2,1.8c1.6,0,3.3-2.3,5.2-7l1.9,1.4
	c-2.9,6.7-6.5,10-10.9,10c-3.4,0-5.6-1.7-6.7-5c-2.7,3.3-5.9,5-9.5,5c-3,0-5.5-1-7.5-3.1c-2-2-3.1-4.6-3.1-7.8
	c0-5.1,1.8-9.6,5.5-13.6c3.7-4,7.8-6,12.3-6c3.1,0,5.2,1.5,6.3,4.4h0.1L465.1,120.7z M458.5,122.5c-1.4,0-2.5,0.6-3.3,1.8
	c-0.8,1.2-2,4.7-3.5,10.6s-2.3,9.4-2.3,10.6c0,1.8,1,2.6,2.9,2.6c1.5,0,3.1-0.8,4.7-2.4c1.7-1.6,3.1-4.7,4.2-9.3
	c1.1-4.6,1.7-7.7,1.7-9.4c0-1.1-0.4-2.2-1.2-3.1C460.9,122.9,459.8,122.5,458.5,122.5z"/>
<path d="M498.9,139l2,0.7c-3.3,7.1-7.4,10.7-12.4,10.7c-1.9,0-3.3-0.5-4.4-1.5c-1.1-1-1.6-2.3-1.6-3.8c0-1.2,0.4-3.1,1.1-5.7
	l9.8-36.7h-5l0.6-2.2h5.3c1.3,0,3.1-0.1,5.3-0.4l3-0.4h1.5l-11.3,42.3c-0.3,1-0.5,2-0.5,2.7c0,0.8,0.3,1.2,1,1.2
	C494.8,145.9,496.6,143.6,498.9,139z"/>
<path d="M534.9,139.7l1.9,1.3c-4.4,6.3-10.5,9.4-18.4,9.4c-4.3,0-7.6-1.1-9.7-3.3s-3.2-4.8-3.2-7.8c0-4.7,2-9.1,6-13.2
	c4-4.1,9.2-6.2,15.8-6.2c3.2,0,5.7,0.7,7.3,2c1.7,1.3,2.5,3.1,2.5,5.4c0,7-6.7,10.2-20.1,9.7c-0.8,3.2-1.2,5.5-1.2,6.8
	c0,2.7,1.6,4,4.7,4C525.8,147.7,530.6,145.1,534.9,139.7z M517.5,134.9c4.8,0.2,8.1-0.7,9.8-2.7c1.7-2,2.6-4,2.6-6.1
	c0-1.2-0.3-2.2-1-3c-0.7-0.8-1.7-1.2-3.1-1.2c-2,0-3.7,1-4.9,3.1C519.7,127.1,518.5,130.4,517.5,134.9z"/>
<path d="M547.7,121.5l-0.7-2c4.1-1.5,7.2-3.1,9-4.8c1.9-1.7,2.8-3.3,2.8-4.8c0-1.3-0.3-1.9-0.9-1.9c-0.5,0-0.9,0.4-1.4,1.3
	c-0.6,0.9-1.7,1.3-3.2,1.3c-1.3,0-2.4-0.5-3.3-1.4s-1.3-2.1-1.3-3.6c0-1.7,0.6-3.2,1.8-4.3c1.2-1.1,2.6-1.7,4.3-1.7
	c2.1,0,3.8,0.8,5,2.4c1.3,1.6,1.9,3.5,1.9,5.8c0,2.8-1.1,5.5-3.4,7.9C556.1,118,552.5,120,547.7,121.5z"/>
<path d="M564.5,128.9c0-2.7,1.2-4.9,3.6-6.5c2.4-1.6,5.9-2.5,10.3-2.5c3.4,0,6.1,0.5,7.9,1.6c1.9,1.1,2.8,2.4,2.8,4.1
	c0,1-0.4,1.9-1.3,2.7s-1.9,1.1-3.1,1.1c-1.1,0-2.1-0.4-2.9-1.1c-0.8-0.7-1.2-1.6-1.2-2.8c0-0.4,0.1-0.9,0.2-1.4
	c0.1-0.5,0.2-0.9,0.2-1.1c0-0.9-1.1-1.4-3.3-1.4c-3.8,0-5.7,1.1-5.7,3.3c0,0.7,0.3,1.4,1,2c0.7,0.7,2.7,1.8,5.9,3.4
	c3.3,1.6,5.5,3.2,6.8,4.8c1.3,1.6,1.9,3.4,1.9,5.3c0,2.9-1.4,5.2-4.2,7.1c-2.8,1.8-6.4,2.8-10.8,2.8c-3.8,0-6.8-0.7-9.1-2.1
	s-3.5-3.1-3.5-5.1c0-1.1,0.5-2.1,1.4-2.9c0.9-0.8,2-1.2,3.3-1.2c1.2,0,2.2,0.4,2.9,1.1c0.7,0.7,1.1,1.5,1.3,2.2c0,2.1,0.3,3.6,1,4.5
	s1.7,1.3,3.3,1.3c1.9,0,3.5-0.3,4.8-0.9c1.3-0.6,1.9-1.5,1.9-2.7c0-2.3-2.6-4.6-7.8-6.8C567.1,135.7,564.5,132.7,564.5,128.9z"/>
<rect x="491" y="510" style="fill:none;" width="0" height="4"/>
<path class="st0" d="M124.5,72.5c0,4.7,0,9.5,0,14.2c0,4.4-2,5.9-5.1,3.5c-4.4-3.4-9.3-5.5-14-8.2c-2.1-1.2-4.3-1.9-6.6-2.7
	c-2.3-0.9-3.5-2.4-3.4-5.5c0.1-5.8,0.1-11.5,0.5-17.3c0.1-2.2,0.8-3.2,2.6-3.2c7.6,0,15.3,0,22.9,0c2.2,0,3.1,1.4,3.1,3.9
	C124.5,62.3,124.5,67.4,124.5,72.5C124.5,72.5,124.5,72.5,124.5,72.5z"/>
<path class="st1" d="M206.4,54.1c-2.6-1-5.1-1.9-7.7-3c-0.7-0.3-1.8-0.4-1.8-1.5c0-1,1-1.3,1.7-1.5c4.6-1.3,9-3.5,13.4-5.4
	c9.7-4.1,19.3-8.3,29-12.5c2.9-1.3,4.1-0.5,4.2,3.3c0,1.3,0.1,2.5,1.2,3.3c1,1.7,0.5,3.6,0.6,5.4c0.1,1.7-0.3,3.5,0.6,5l0,0
	c0.9,1.6,0.5,3.3,0.6,5c0.1,2.7-0.1,5.2,1.3,7.9c1.1,2.2,0.8,5.3-0.2,8c-1.9-0.2-1.6-2.1-1.8-3.6c-0.2-1.4,0.2-3-0.6-4.3
	c-0.2-0.3-0.3-0.7-0.4-1c-0.7-3.5,0.5-7.3-0.8-10.8c-0.2-0.3-0.3-0.6-0.4-1c-0.5-2.9,0-5.9-0.4-8.9c-0.2-0.6-0.6-1-0.9-1.5
	c-0.2-0.3-0.3-0.5-0.4-0.8c-0.3-1.1-0.2-2.3-0.3-3.4c-0.1-1-0.6-1-1.3-0.7c-5.9,2.7-11.7,5.9-18,7.7c-1.6,0.3-3.1,1.3-4.7,1.6
	c-1,0.3-2,0.7-2.8,1.4c-0.4,0.3-0.9,0.6-1.4,0.8c-1.1,0.3-2.2,0.7-3.2,1.2c-0.2,0.1-0.5,0.2-0.7,0.3c-1.4,0.2-2.6,1.1-3.8,1.9
	c-2.5,0.9-5,1.7-7.4,2.9c1.1,0.3,2.1,0.6,3.2,1c2,0.6,4,0.7,5.8,2.1c1.1,1,1.8,2.2,1.1,3.9c-0.2,0.3-0.4,0.5-0.8,0.6
	c-0.5,0.1-0.9,0-1.3-0.3C207.7,56,208.1,54.3,206.4,54.1z"/>
<path class="st2" d="M164.6,55.5c0-11.8,0-23.5,0-35.3c0-2.3,0.5-3.6,2.7-3.7c7-0.6,14.1-0.5,21.1-0.5c4.4,0,4.7,0.5,4.7,5.8
	c0,12.7,0,25.4,0,38.1c0,1.9,0,3.7-1.8,4.7c-0.6,0.3-0.8-0.2-0.9-0.8c0-0.4,0.1-0.7,0.3-1.1c0.2-0.3,0.4-0.6,0.6-0.9
	c0.9-7.1,0.6-14.3,0.2-21.3c-0.3-6.1-0.3-12.2-0.4-18.2c0-1.3,0.2-2.8-1.1-3.6c-0.5-0.1-1-0.3-1.4-0.3c-6.3-0.1-12.6,0-18.9,0
	c-1,0-2.1-0.3-2.9,0.9c-0.8,1.3-0.6,2.8-0.6,4.3c0,9.1,0,18.2,0,27.3c0,1.5,0.2,3-0.5,4.4C165.3,55.6,165,55.7,164.6,55.5z"/>
<path class="st3" d="M248.8,68c0.8-3.2,1.3-6.3-0.5-9.3c-1.1-1.8-0.5-3.8-0.6-5.7c-0.1-1.9-0.1-3.9-0.1-5.8c0.3,0.3,0.9,0.6,0.8,0.8
	c-0.4,5.9,2.1,11.3,1.9,17c-0.1,3.2-0.4,5.3-4.4,3.7c-3.2-1.2-6.5-2-9.5-3.8c-2.1-1.3-3.9,0.8-4.8,2.1c-1.8,2.7-4.4,4.1-6.4,6.3
	c-3.6,3.9-7.9,6.9-11.4,10.8c-2.7,3-5.7,5.4-8.5,8.2c-0.3,0.3-0.9,0.4-1.3,0.6c-0.3-0.7,0-1.2,0.4-1.8c1.7-1.5,2.8-3.7,4.7-4.9
	c1.9-1.4,3.3-3.5,5.2-4.9c2.3-2.9,5.4-4.7,7.6-7.6c3.8-3,7-7,10.8-10c1.2-0.7,2.5-1.1,3.7-0.6C240.6,64.9,244.8,66.1,248.8,68z"/>
<path class="st4" d="M104.3,88c8.4,3.6,15.6,9.8,23,15.4c3.3,2.5,6.1,6.1,9.2,9.1c1.7,1.1,3,2.8,4,4.7c1.2,2.3,2.8,3.4,5,2.3
	c0.3,0.1,0.5,0.3,0.7,0.5c0,1.3-0.8,1.8-1.6,2.2c-1,0.4-2,0.7-3,0.5c-2.5-1.6-3.2-5.2-5.5-7c-1.4-0.9-2.4-2.4-3.5-3.6
	c-1.4-1.3-2.4-3.1-4-4.1c-1-0.6-1.8-1.6-2.6-2.6c-0.9-0.9-1.7-1.8-2.8-2.4c-2.5-1.8-5-3.7-7.5-5.5c-3-2.3-5.9-4.5-9.3-6
	c-1.1-0.5-2.1-1.1-2.4-2.7C103.9,88.6,104.1,88.3,104.3,88z"/>
<path class="st5" d="M131.6,97.8c-2.7-0.4-3.6-2.2-3.6-5.4c0.1-17.4,0-34.9,0.1-52.3c0-1.6-0.5-3.7,1.8-3.9c0.2,0.4,0.3,0.8,0.2,1.3
	c-0.1,14.9,0,29.8,0,44.7c0,1.8,0,3.7,0,5.5C130,91.1,129.6,94.7,131.6,97.8z"/>
<path class="st6" d="M129.8,36.8c0-0.2,0-0.5,0-0.7c8.6,0,17.2-0.1,25.8-0.1c1.7,0,2.7,0.5,2.8,2.9c0.8,18.5,0.2,37.1,0.4,55.6
	c0,0.7,0,1.4-0.5,1.9c-1.2-1.3-0.9-3-0.9-4.5c0-8.8,0-17.5,0-26.3c0-1.5,0.1-3-0.4-4.5c-0.4-4.4-0.1-8.8-0.2-13.2c0-2.1,0-4.1,0-6.2
	c-0.1-3.5-0.4-4-3.3-4c-6.7-0.1-13.5,0-20.2,0c-0.7,0-1.3,0-2-0.1C130.7,37.5,130.2,37.3,129.8,36.8z"/>
<path class="st7" d="M153.5,142.9c-3.2,3.6-6.5,7.1-10.2,9.9c-2.9,2.2-3.7,1.7-5.1-1.9c-2.5-6.3-4.8-12.7-7.7-18.7
	c-1.2-2.5-2.7-4.9-4.2-7.2c-0.2-0.2-0.2-0.4-0.2-0.5c0.1-0.2,0.1-0.3,0.2-0.3c2.4,0.2,3,2.6,3.9,4.5c0.5,0.9,1.2,1.7,1.8,2.5
	c3,5.5,5.5,11.3,7.2,17.6c0.9,3.3,1.8,3.6,4.2,1.8c1.3-1,2.3-2.5,3.4-3.7c2.1-1,3-4.1,5.4-4.4C152.8,142.3,153.2,142.5,153.5,142.9z
	"/>
<path class="st8" d="M157.7,61c0.8,1.1,0.5,2.4,0.5,3.6c0.1,10.6,0.1,21.2,0.1,31.8c-0.2,4.3-4.2,4-5.7,6.8
	c-0.4,0.8-1.4,1.6-2.5,1.5c-0.3-0.7,0-1.2,0.4-1.7c1.5-1.2,2.4-3.2,4-4.3c0.7-0.6,1-1.5,1.4-2.2c0.2-0.3,0.4-0.5,0.6-0.9
	c0.8-5.7,0.2-11.4,0.3-17.2c0.1-2.4,0-4.8,0-7.2C157.2,67.9,156,64.2,157.7,61z"/>
<path class="st9" d="M112.3,106.9c-6.6-6.7-13.8-12.6-20.3-19.6c0.5-0.6,1-0.5,1.6-0.4c4.3,3.4,8.3,7.5,12.5,11.1
	c1.4,1.6,2.7,3.3,4.4,4.4c1.1,0.7,1.9,1.9,2.1,3.5C112.6,106.4,112.5,106.7,112.3,106.9z"/>
<path class="st10" d="M131.6,97.8c-2.2-1.5-2.7-3.8-2.5-6.7c0.2-2.9,0.1-5.8,0.1-8.6c0.5-5.4,0-10.9,0.3-16.3
	c0.3-0.4,0.6-0.4,0.9-0.2c1,1.7,0.5,3.8,0.7,5.7c0,4.6,0,9.3,0,13.9c0,3-0.2,5.9,0.1,8.9c0.1,0.3,0.3,0.5,0.5,0.8
	c1.3,1.4,2.9,2.4,3.4,4.7c0,0.3-0.1,0.6-0.3,0.9C133.4,100.4,133.3,97.9,131.6,97.8z"/>
<path class="st11" d="M153.5,142.9c-0.4,0-0.8,0-1.2,0c0-2,1.4-3.1,2.4-4c5.8-4.9,10.8-11.1,16.4-16.3c0.4-0.4,0.8-0.7,1.3-0.8
	c0.3,0,0.6,0,0.8,0.2c0.1,0.2,0.2,0.4,0.2,0.6c0,0.2-0.1,0.3-0.1,0.3C167,129.8,160.3,136.4,153.5,142.9z"/>
<path class="st12" d="M204.7,91.6c-0.2,0.5-0.4,0.9-0.6,1.4c-4.2,4.1-8.5,8.1-12.7,12.2c-0.9,0.9-1.6,2-2.4,3
	c-0.7,0.5-1.2,1.3-2.2,1c-0.8-1.6,0.7-2.1,1.1-3.1c0.4-0.6,0.8-1.2,1-1.9c0.1-0.4,0.3-0.8,0.6-1.1c0.3-0.3,0.7-0.4,1.1-0.5
	c2.1-0.1,2.9-2.5,4.6-3.5c0.2-0.2,0.4-0.3,0.6-0.5c0.6-0.5,1-1.2,1.4-1.9c0.5-0.8,1.2-1.4,1.9-1.9c0.2-0.2,0.4-0.3,0.6-0.4
	c0.4-0.3,0.9-0.5,1.3-0.8c0.8-0.6,1.3-1.4,1.9-2.2c0.3-0.4,0.6-0.6,1-0.7C204.4,90.8,204.6,91.1,204.7,91.6z"/>
<path class="st13" d="M135,100.7c0-0.3,0-0.6,0.1-0.8c1.8-0.8,2.8,0.9,3.9,2.1c0.8,0.9,1.6,1.9,2.6,2.7c2.2,1.7,4.3,2.5,6.2-0.5
	c0.5-0.8,1.3-1.3,2.3-1.2c0.3,0.1,0.5,0.3,0.7,0.5c-0.2,0.5-0.4,0.9-0.6,1.4c-0.9,1.5-2,2.7-3.4,3.6c-1.6,0.9-2.9,1.1-4.4-0.6
	C140.1,105.1,137.4,103,135,100.7z"/>
<path class="st14" d="M170.9,92.9c0.6-0.5,1.2-0.9,1.8-1.4c0.7-1,1.4-2,2.4-2.7c3.7-3.7,7.4-7.4,11-11.1c0.3-0.4,0.7-0.4,1.2-0.2
	c0.2,0.3,0.2,0.6,0.1,0.9c-1.8,2.8-4.2,4.8-6.2,7.2c-0.4,0.3-0.9,0.6-1.3,0.9c-1.1,0.6-1.5,1.9-2.4,2.7c-1.5,1.1-2.6,2.7-3.8,4.1
	c-0.4,0.4-0.9,0.8-1.5,0.9c-0.4,0-0.9-0.1-1.2-0.4C170.8,93.5,170.8,93.2,170.9,92.9z"/>
<path class="st15" d="M129.8,129.1c-0.9-1.9-1.8-3.8-3.4-5c-2.2-2.5-4-5.4-5.8-8.2c-1.2-1.4-2.3-2.8-3.5-4.2
	c-0.3-0.4-0.4-0.9-0.2-1.3c1.4-0.7,1.9,0.8,2.7,1.6c0.9,1.2,1.9,2.1,2.9,3.1c1.1,1.8,2.5,3.2,3.5,5.1c0.4,0.6,0.8,1.2,1.2,1.7
	c0.6,0.9,1.1,2,1.9,2.8c0.5,0.5,1,1.2,1.2,2C130.4,127.6,130.4,128.4,129.8,129.1z"/>
<path class="st16" d="M169.9,86.8c-0.6,0.6-1.2,1.1-1.8,1.7c-0.8,0.8-1.3,2-2.7,1.2c-1.1-0.7-1.4-1.7-1.4-3.1
	c0.1-4.1,0.1-8.2,0.1-12.3c2.2,1.4,0.6,4.2,1.6,6c0.3,1.4,0.2,2.8,0.2,4.2c-0.1,1.4,0.2,2.2,1.5,1.5c0.8-0.3,1.6-0.7,2.4-0.2
	c0.1,0.2,0.2,0.4,0.1,0.6C170,86.7,169.9,86.8,169.9,86.8z"/>
<path class="st17" d="M165.1,80.5c-1.2-1.9,0.2-4.3-0.9-6.2c0.1-6.3,0.3-12.5,0.4-18.8c0.2,0,0.4,0,0.6,0c0.9,1,0.8,2.3,0.9,3.5
	c0,6,0,12,0,18C166,78.3,166.1,79.6,165.1,80.5z"/>
<path class="st18" d="M206.4,54.1c1.9-0.2,1.8,1.3,1.8,2.8c-2.6,3.7-5.7,6.7-8.9,9.5c-0.6,0.1-1.2,0.1-1.6-0.5
	c2.9-3,5.4-6.5,8.7-8.9C207.9,55.9,207.3,55.1,206.4,54.1z"/>
<path class="st19" d="M181.5,73c-0.8,1.1-1.6,2.2-2.4,3.3c-1.3,1.9-3,3.4-4.5,5.1c-0.6,0.7-1.2,1.8-2.4,1.4
	c-0.2-0.2-0.4-0.5-0.4-0.9c0.2-1.9,1.5-2.8,2.4-4c2.3-1.8,3.9-4.8,6.5-6.3c0.3,0,0.5,0.1,0.8,0.3C181.7,72.4,181.7,72.7,181.5,73z"
	/>
<path class="st20" d="M186.7,109c0.8-0.3,1.5-0.5,2.3-0.8c-3.7,3.9-7.4,7.9-11.6,11.1c-0.2-0.2-0.3-0.5-0.3-0.9
	c1.4-2.8,3.8-4.4,5.8-6.5C184.2,111,184.7,108.7,186.7,109z"/>
<path class="st21" d="M146.1,120.1c-0.2,0-0.5-0.1-0.7-0.1c-0.1-0.3-0.1-0.6,0.1-0.8c2.9-3.5,6.5-5.8,9.3-9.5c0.4-0.5,0.8-1,1.2-1.5
	c0.3-0.2,0.5-0.2,0.7,0.1c0.6,2.2-0.7,3.4-1.8,4.6c-2,2.1-4.2,4-6.1,6.2C147.9,119.8,147.3,120.9,146.1,120.1z"/>
<path class="st22" d="M156.6,108.5c-0.2-0.1-0.4-0.2-0.7-0.4c3.1-2.9,5.4-7.2,9.2-9c0.2-0.3,0.5-0.3,0.7,0c-0.8,3.3-3.5,4.5-5.3,6.7
	C159.5,107.2,158.5,109,156.6,108.5z"/>
<path class="st23" d="M181.5,73c0-0.3-0.1-0.6-0.1-0.9c-0.1-1.5,0.9-2.2,1.4-3.2c1.2-1.2,2.5-2.2,3.6-3.6c1-0.6,1.9-1.5,3.1-0.9
	c-0.1,2.3-1.7,3.1-2.9,4.3C184.5,69.3,183.7,72.3,181.5,73z"/>
<path class="st24" d="M172.2,82.6c2.3-0.9,3.5-3.5,5.2-5.2c0.5-0.5,0.9-1.2,1.7-1.2c-2.3,4.5-5.9,7.4-9.3,10.5c0-0.3,0-0.6-0.1-0.8
	C169.9,84,170.9,83.1,172.2,82.6z"/>
<path class="st25" d="M145.5,119.4c0,0.2-0.1,0.4-0.1,0.6c-2.2,1.4-3.8,0.4-5.1-1.9c-1.1-2-2.5-3.7-3.8-5.6c2,0.3,3,2.1,4.1,3.8
	c1.2,1.9,2.4,4.1,4.9,2.2c0.2,0.2,0.3,0.3,0.2,0.5C145.6,119.3,145.5,119.4,145.5,119.4z"/>
<path class="st26" d="M145.5,119.4c0-0.2,0-0.5,0-0.7c2.8-3.4,6-6.2,9.3-9c0,2.2-1.8,2.5-2.8,3.6
	C149.9,115.5,147.6,117.4,145.5,119.4z"/>
<path class="st27" d="M93.6,87.5c-0.5-0.1-1-0.1-1.5-0.2c-1.7-2.1-3.8-3.3-5.8-4.8c-0.1-0.1-0.2-0.3-0.2-0.5c0-0.2,0-0.3,0.1-0.3
	c0.3-0.5,0.9-0.3,1.3-0.6c0.8-0.1,1.7-0.2,2.4,0.6c0,0.1,0,0.3-0.1,0.4c1.3,1.6,2.8,2.7,4.4,3.7c0.5,0.3,1.4,0.7,0.7,1.7
	C94.3,87.8,93.9,87.7,93.6,87.5z"/>
<path class="st28" d="M93.8,83.8c3,0.1,5.7,1.5,8.1,3.5c0.3,0.4,0.3,0.9,0.2,1.4c-0.2,0.3-0.4,0.4-0.7,0.4c-2.6-1.5-5.6-1.8-7.8-4.3
	C93.6,84.4,93.6,84.1,93.8,83.8z"/>
<path class="st3" d="M247.7,47.2c-1.5-0.8-1.1-2.4-1.2-3.9c0-2.2,0-4.4,0-6.5c1.6,0.8,1.1,2.4,1.2,3.9
	C247.7,42.8,247.7,45,247.7,47.2z"/>
<path class="st20" d="M165.9,99.3c-0.3,0-0.5-0.1-0.8-0.1c1.4-2.8,3.5-4.6,5.8-6.3c0,0.3,0.1,0.5,0.1,0.8
	C170.3,96.9,168.4,98.5,165.9,99.3z"/>
<path class="st29" d="M120.5,115.9c2.4,2.3,4.2,5.2,5.8,8.2c0,0.3,0,0.5,0,0.8C124.1,122.2,121.6,119.6,120.5,115.9z"/>
<path class="st30" d="M197.7,65.9c0.6,0,1.1,0,1.7-0.1c0.2,0.2,0.3,0.5,0.2,0.9c-0.6,1.9-1.9,2.9-3.2,4c-0.9,0.6-1.3,1.9-2.3,2.5
	c-0.4,0.1-0.8,0.1-1.1-0.2c-0.3-1.3,0.4-2.1,1-3c1.3-0.8,2.2-2.1,3.1-3.4C197.3,66.4,197.5,66.1,197.7,65.9z"/>
<path class="st31" d="M187.3,77.7c-0.4,0-0.8,0-1.2,0c1.9-1.9,3.6-4.1,5.8-5.6c0.2-0.2,0.5-0.2,0.7,0c0.1,0.3,0.2,0.6,0.2,1
	c0,0.3-0.1,0.6-0.3,0.9C190.5,74.6,189.9,78.2,187.3,77.7z"/>
<path class="st20" d="M117,110.3c0,0.5,0,0.9,0,1.4c-1.8-1.3-3.5-2.7-4.7-4.8c0-0.3,0-0.6,0.1-0.8
	C115.1,105.7,115.8,108.4,117,110.3z"/>
<path class="st14" d="M86.1,81.9c0.1,0.2,0.1,0.4,0.1,0.7c-1.6,0.2-2.4-0.9-3.2-2.4c1.4-1.2,2.6-1,3.7,0.5
	C86.4,81,86,81.3,86.1,81.9z"/>
<path class="st32" d="M186.6,68.6c1-1.4,1.9-2.8,2.9-4.2c-0.1-0.6,0.2-0.8,0.5-1c0.3,0,0.5,0.1,0.7,0.3c0.2,0.2,0.4,0.5,0.6,0.7
	C189.6,65.6,188.9,68.3,186.6,68.6z"/>
<path class="st33" d="M177.4,118.5c0,0.3,0,0.5,0,0.8c-1.1,1.6-2.1,3.3-4.1,3.5c0-0.2,0-0.4,0-0.6
	C174.4,120.5,175,118.2,177.4,118.5z"/>
<path class="st34" d="M93.8,83.8c0,0.3,0,0.5,0,0.8c-2,0.5-3.3-0.7-4.2-2.6c0,0,0.2-0.2,0.2-0.2C91.3,81.9,92.6,82.7,93.8,83.8z"/>
<path class="st35" d="M197.1,66.6c-0.1,2.1-1.6,2.6-2.8,3.6c-0.2,0.2-0.5,0.2-0.7,0c-0.2-0.3-0.2-0.6,0.1-0.8
	C195.2,69.1,195.5,66.7,197.1,66.6z"/>
<path class="st36" d="M101.9,88.8c0-0.5,0-1,0-1.5c0.8-0.1,1.7,0,2.3,0.7c0,0.3-0.1,0.6-0.1,0.9C103.4,89.6,102.6,89.6,101.9,88.8z"
	/>
<path class="st37" d="M86.1,81.9c-0.4-0.1-1.1,0-0.9-0.8c0.2-0.8,0.9-0.3,1.4-0.5c0.2,0.2,0.5,0.4,0.7,0.6
	C87,81.5,86.6,81.7,86.1,81.9z"/>
<path class="st20" d="M175.1,88.8c-0.6,1.1-1.2,2.3-2.4,2.7C173,90,173.7,89,175.1,88.8z"/>
<path class="st38" d="M193.7,69.4c0,0.2,0,0.5,0,0.7c0.3,1.2-0.5,1.6-1.2,2l-0.3,0c0,0-0.3,0-0.3,0C192,70.7,192.7,70,193.7,69.4z"
	/>
<path class="st39" d="M120.4,89.6c-0.2-0.2-0.4-0.4-0.6-0.5c-0.6-1.3-1.9-1.5-2.9-2.3l0,0c-1.6-1.5-3.4-2.4-5.3-2.8
	c-4.3-2.5-8.7-4.5-13.3-6.2c-0.8-0.8-1.3-1.6-0.7-2.9c0.3-0.2,0.6-0.2,0.9-0.1c2.3,1.7,4.7,2.4,7.6,2.6c3.4,0.1,6.9,0.9,10.2,2.3
	c1.9,0.8,4,1,5.7,2.2c1.2,2.5,0.8,5,0.3,7.6C121.8,90,121.1,89.9,120.4,89.6z"/>
<path class="st40" d="M120.4,89.6c0.6-0.1,1.2-0.1,1.8-0.2c1-4,0-7.9-0.7-11.8c-0.1-1.9-0.1-3.7-0.1-5.6c0-3.3,0-6.6,0-9.8
	c0-1.3,0-2.5,0.1-3.8c0.3-1.3,0.2-2.6-0.5-3.7c2.4-1.3,2.3,0.8,2.3,2.5c0,7.6,0.1,15.3,0.1,22.9c0,2.4,0,4.9,0,7.3
	C123.5,90.3,122.5,91,120.4,89.6z"/>
<path class="st41" d="M97.8,74.9c-0.2,1,0.2,1.9,0.5,2.9c-1.4-0.2-1.7-1.3-1.7-2.7c0-6.1,0-12.2,0.1-18.3c0-1.4,0.2-2.6,1.7-2.6
	c0.2,0.3,0.3,0.7,0.3,1.1c-0.1,2.8-0.1,5.5-0.1,8.3C98.3,67.4,99.4,71.3,97.8,74.9z"/>
<path class="st42" d="M121,54.7c1.8,0.1,1.5,1.5,1.2,2.9c-0.3,0.5-0.5,1-1,1.1c-3.7-0.8-7.5-1.4-11.3-2.2c-0.6-0.1-2.3-0.1-1.1-2
	c3.5,0.1,7.1-0.3,10.6,0.3C119.9,54.7,120.5,54.7,121,54.7z"/>
<path class="st40" d="M119.4,54.7c-3.7,0-7.4,0.1-11.1,0.1c-3.3,1.7-6.6,1.7-9.9,0c0-0.2,0-0.4,0-0.6c6.5,0,12.9-0.1,19.4-0.1
	C118.4,54.1,119,54.1,119.4,54.7z"/>
<path class="st43" d="M111.7,84c2.2-0.2,4,0.6,5.3,2.8C115.2,85.9,113.4,85,111.7,84z"/>
<path class="st43" d="M116.9,86.8c1.3,0.2,2.5,0.5,2.9,2.3C118.8,88.4,117.6,88,116.9,86.8z"/>
<path class="st44" d="M209.8,56.7c0.3-1.4-0.2-2.4-1.2-3.2c0.1-1.9,1.4-1.6,2.3-1.5c9.5,0.8,18.9,2.3,28.2,4.7
	c0.6,0.1,1.1,0.4,1.7,0.5c3,0.5,3.4,0.1,3.7-3.6c0-0.9,0.1-1.9,0.4-2.8c0.2-0.3,0.4-0.5,0.8-0.6c0.5,0,0.9,0.3,0.9,0.9
	c-0.3,2.2-0.2,4.4-0.1,6.6c0.2,0.6,0,1.3,0.5,1.8l0,0c0.7,1,0.5,2.2,0.8,3.4c-0.3,1.1,0,2.3-0.5,3.4c-1,0.9-2-0.2-3,0.1
	c-1.5-0.5-3.1-0.9-4.6-1.5c-0.9-0.5-1.5-1.5-2.7-1.4c-1.2-0.5-2.5-0.5-3.8-0.3c-4.6-0.4-9.1-2.1-13.7-2.6c-2.3-0.2-4.6-0.7-6.9-0.9
	C211.3,59.7,209.7,59.3,209.8,56.7z"/>
<path class="st45" d="M245.4,53.4c0,5.1-1.6,6.5-5.9,4.6c-4.3-1.9-8.9-2.3-13.4-3.2c-5-1-10-1.4-15-2.1c-0.9-0.1-1.8-0.3-2.4,0.7
	c-1.7-1.5-4-0.9-5.8-2.1c-1.1-1.5-2.8-0.8-4.1-1.5c2.6-2.2,5.7-2.8,8.7-3.6c0.1,0.1,0.2,0.2,0.4,0.3c0.8,1.3,2,1.1,3.2,1.2
	c6.7,0.4,13.4,1.5,20.1,2.5C236,51.1,240.6,53,245.4,53.4z"/>
<path class="st46" d="M223.9,39c6.4-2,12.3-5.2,18.5-7.9c0.3-0.2,0.5-0.2,0.8,0c0.8,1.3,0.3,2.9,0.5,4.4c0.1,0.5,0.2,0.9,0.5,1.3
	l0,0c0.2,0.3,0.4,0.6,0.5,1c0.4,1.3,0.2,2.7,0.3,4c0,1-0.1,2-0.6,2.8c-1,1.1-2.3,1.3-3.5,0.9c-4.8-1.6-9.7-1.3-14.5-2.9
	c-1.1-0.4-2.3-0.5-3-1.8C222.9,40,223.1,39.4,223.9,39z"/>
<path class="st47" d="M209.8,56.7c0.5,1.2,1.2,2.2,2.4,2.2c6.9,0.1,13.6,1.8,20.4,3.5c0.4,0.1,0.8,0,1.2,0c0.2,1.6-1.4,1.4-1.8,2.4
	c-1.4,0.6-2.3,2.2-3.8,2.5c-7.1-1.6-14.2-2.2-21.4-2.6c-1.1-0.1-2.1-0.3-2.7-1.6c0.5-3.6,3.2-4.7,5.3-6.3
	C209.5,56.8,209.7,56.8,209.8,56.7z"/>
<path class="st48" d="M245.9,50.6c-0.2,0-0.4,0-0.6,0c-2.3,2.2-4.8,1.2-7.2,0.6c-7.2-1.7-14.3-3.4-21.7-3.4c-1.9,0-4.1,0.3-5.5-2.2
	c-0.1-0.7,0.4-0.9,0.7-1.3l0,0c1.2-0.5,2.4-0.6,3.5-1.3c0.3-0.3,0.7-0.5,1-0.8c0.6-0.3,1.2-0.4,1.8-0.2c0.9,1,1.8,1.6,3.1,1.7
	c6.1,0,11.9,2.2,17.9,2.7c2.1,0.2,4.1,1.2,6.2,0.9c0.3,0.1,0.5,0.3,0.8,0.5l0,0C246.5,48.8,246.6,49.7,245.9,50.6z"/>
<path class="st49" d="M232,64.5c0.6-0.7,1.2-1.4,1.8-2c1.4-0.2,2.7,0.3,4.1,0.7c1.1-0.5,1.2,0.9,1.8,1.3c1.7,0.5,3.5,1,5.2,1.4
	c0.9,0.1,1.5,1.1,2.4,0.8c0.5-1.1-0.2-2.5,0.5-3.6c-0.6-1.1-0.7-2.3-0.6-3.5c1.4,0.2,1.2,1.5,1.2,2.6c-0.1,1.9,0.1,3.9,0.5,5.7
	c-3.8,0.3-7.1-1.7-10.4-3.3c-2.1-1-3.8-1.2-5.7-0.1C232.4,64.9,232.2,64.9,232,64.5z"/>
<path class="st50" d="M209.3,56.9c-1.7,1.9-3.5,3.7-5.2,5.6c-0.3,1.4-1.1,2.5-2.1,3.3c-0.8,0.6-1.5,1.4-2.6,0.9c0-0.3,0-0.5,0-0.8
	c2.9-3,5.4-6.6,8.8-8.9C208.6,56.9,209,56.9,209.3,56.9z"/>
<path class="st49" d="M245.9,50.6c0-0.9,0-1.8,0-2.7c1.4,0.2,1.2,1.5,1.2,2.6c0,3.1,0,6.1,0,9.2c-0.5-0.3-0.6-0.8-0.6-1.4
	c-0.4-2.3-0.4-4.6,0-7C246.3,51.1,246.1,50.9,245.9,50.6z"/>
<path class="st49" d="M245.9,47.9c-0.2,0-0.4,0-0.6,0c-0.3-0.3-0.8-0.5-1-1.1c-0.3-1-0.1-1.8,0.3-2.7c0.5-2.2-0.5-4.6,0.7-6.6
	C246.5,40.9,245.5,44.4,245.9,47.9z"/>
<path class="st51" d="M245.4,37.5c-0.3,2.3,0.6,4.7-0.6,6.9c-0.5-0.8-0.2-1.8-0.3-2.7c-0.2-1.4,0.3-2.9-0.3-4.3c0-0.2,0-0.5,0-0.7
	C244.7,36.8,245.1,36.9,245.4,37.5z"/>
<path class="st51" d="M243,31.2c-0.2,0-0.5-0.1-0.7-0.1c1.2-1,1.8-0.4,1.8,1.2c0.1,1.5,0,3,0.1,4.5c-0.2-0.2-0.4-0.4-0.6-0.7
	C242.9,34.6,243.8,32.7,243,31.2z"/>
<path class="st45" d="M223.9,39c-0.2,0.4-0.4,0.9-0.6,1.3c-1,1.5-2.3,1.7-3.7,1.1c-0.1-0.1-0.2-0.3-0.3-0.4
	C220.8,40.3,222.3,39.6,223.9,39z"/>
<path class="st45" d="M211.7,44.4c-0.2,0.2-0.4,0.5-0.6,0.7c-1,1.2-1.9,2.3-3.5,1.4c0,0-0.1-0.1-0.1-0.1
	C208.6,44.8,210.1,44.4,211.7,44.4z"/>
<path class="st44" d="M198.8,50c1.4,0.3,3.2-0.9,4.1,1.5C201.6,51,200.1,51,198.8,50z"/>
<path class="st45" d="M215.1,43c-0.9,1.3-2.2,1.5-3.5,1.3C212.7,43.4,213.9,43.1,215.1,43z"/>
<path class="st45" d="M218.1,42.3c-0.6,0-1.2,0-1.9-0.1c0.8-1,1.9-1.2,3-1.3l0,0.1C219.3,42,219,42.6,218.1,42.3z"/>
<path class="st52" d="M189,17.4c0.4,0,0.8,0,1.2,0c1.3,0.4,1.5,1.5,1.4,2.9c-0.1,5.2,0.1,10.4-0.1,15.6c-1.7,0.4-1.3-1.2-1.6-2.2
	c0-1.4-0.1-2.8,0-4.2c0-1.1,0-2.2,0-3.2c0-1.3-0.1-2.5-0.6-4.1c-2,3.6-4.3,6.6-6.8,9.3c-3,3.2-6.5,5.7-10.1,7.9
	c-1.8,1.1-3.9,2-4.7,4.7c-0.1,0.7-0.1,1.4-0.1,2.1c0,0.9-0.1,1.9-0.7,2.6c-0.3,0.1-0.6,0-0.9-0.3c-0.6-2-0.2-4.2-0.3-6.2
	c0.1-0.9,0.4-1.8,0.8-2.5c3-3.2,6.7-5,10-7.6c3.6-2.9,6.1-7,8.6-11.1c0.7-1.1,1.2-2.4,2.3-2.9C188,17.6,188.6,17.8,189,17.4z"/>
<path class="st53" d="M190.8,63.8c-0.2,0-0.4,0-0.6-0.1c-0.6-1.4-1.1-1.9-2.7-1.3c-5.4,2.2-10.7,4.9-16.4,6.1
	c-1.4,0.3-2.5,1-3.4,2.3c-0.3,0.1-0.6,0.1-0.9-0.1c-0.5-0.8-0.5-1.7-0.3-2.7c0.6-2.7,2.2-3.9,4.3-4.5c5.2-1.4,10.3-3,15.1-5.7
	c1.3-0.7,2.8-1,4.2-0.6c1.4,1.8,1.7,3.7,0.6,5.9C190.8,63.4,190.8,63.6,190.8,63.8z"/>
<path class="st54" d="M189,17.4c-0.2,0.6-0.7,0.6-1.1,0.7c-1,0.8-2.2,1-3.4,1c-0.8,0-1.6,0-2.5,0c-1.1,0-2.3,0-3.4,0
	c-1,0-1.9,0-2.9,0c-2.4-0.2-4.8,0.4-6.9-0.4c-0.4,3.3-1.3,6.5-1.1,9.9c0.1,1.5,0,3.1,0,4.6c0,0.8-0.1,1.6-0.2,2.3
	c-0.4,2-0.7,4.1-1.1,6.2c0,2.3,0,4.6,0,6.9c0.3,0.5,0.6,1.1,0.7,1.7c0.1,1.1,0.1,2.2-0.3,3.2c-0.3,0.5-0.7,1.2-1.2,0.2
	c-0.1-11.2,0-22.4,0-33.6c0-0.7-0.1-1.4,0.3-2c0.5-0.8,1.2-0.8,1.8-0.8C174.7,17.3,181.9,17.3,189,17.4z"/>
<path class="st55" d="M191.3,36c0-5.1,0-10.3,0.1-15.4c0-1.4-0.3-2.4-1.2-3.3c1.5-0.2,1.8,0.7,1.8,2.3c0.1,13.5,0.3,27.1,0.4,40.6
	c0,1.1,0.2,2.4-1.1,2.8c-0.5-4.1-1-8.1-0.8-12.3c0-2.2,0-4.3,0-6.5C190.8,41.6,189.9,38.7,191.3,36z"/>
<path class="st56" d="M165.8,18.1c0.1,12,0.1,23.9,0.2,35.9c1.3,4.3,0.5,8.8,0.6,13.2c0,0.9-0.1,1.8-0.1,2.7c0.3,4.8,0.4,9.5,0,14.3
	c-0.2,0.6-0.4,1.2-1.2,1c0-1.6-0.1-3.2-0.1-4.7c0-8.3,0-16.7,0.1-25c0-11.3,0-22.6,0.1-33.8C165.3,20.5,164.9,19.1,165.8,18.1z"/>
<path class="st57" d="M191.3,50.6c0,4.1,0.1,8.3,0.1,12.4c-0.2,0-0.4,0.1-0.6,0.2c0-1.9-0.1-3.8-0.6-5.6c-0.5-0.5-0.6-1.1-0.7-1.8
	c0-0.5,0-1,0-1.5c0-0.6,0.1-1.3,0.2-1.9c0.2-0.6,0.4-1.2,0.8-1.6C190.8,50.6,191,50.5,191.3,50.6z"/>
<path class="st58" d="M232,64.5c0.3,0,0.5,0.1,0.8,0.1c-3.5,3.2-6.5,7.2-10.5,9.7c-0.2,0.2-0.5,0.2-0.7,0.1c0-2.4,1.8-3.2,2.9-4.5
	c0.2-0.2,0.4-0.4,0.6-0.5c0.9-0.6,1.8-1.2,2.5-2c0.3-0.3,0.7-0.4,0.9-0.7C229.6,65.8,230.6,64.6,232,64.5z"/>
<path class="st59" d="M221.5,74.2c0.2,0,0.5,0.1,0.7,0.1c-2,3.2-5.1,5-7.6,7.6c-0.3,0.3-0.7,0.4-1.1,0.2c-0.6-2,1.1-2.5,1.7-3.8
	c0.2-0.2,0.4-0.4,0.6-0.5c1-0.4,1.8-1.1,2.3-2.1c0.6-0.8,1.3-1.5,2.2-1.9C220.8,73.8,221.2,73.8,221.5,74.2z"/>
<path class="st60" d="M204.7,91.6c-0.2-0.2-0.4-0.5-0.7-0.7c0.1-0.8,0.5-1.5,0.8-2.2c1-1.5,2.1-2.7,3.9-2.5c0.3,0.1,0.5,0.3,0.7,0.6
	C207.8,88.2,206.7,90.6,204.7,91.6z"/>
<path class="st61" d="M209.5,86.8c-0.2,0-0.5-0.1-0.7-0.1c-0.3-0.9,0.4-1.3,0.7-1.8c0.4-0.7,0.9-1.4,1.4-2c0.6-0.6,1.2-1,1.9-1.3
	c0.3-0.1,0.5,0,0.7,0.2c0.4,0,0.9,0.1,1.3,0.1C212.9,83.4,211.6,85.8,209.5,86.8z"/>
<path class="st62" d="M146.1,120.1c1,0,1.5-1,2.3-1.4c0.6-0.3,1.1-1.2,1.8-0.5c0.6,0.6,0.5,1.5,0.3,2.3c-0.2,1-0.8,1.8-1.3,2.7
	c-4,6.3-5.6,13.4-4.3,21.2c0.2,1,0.2,2.1,0,3.1c-0.1,0.3-0.2,0.6-0.3,0.9c-0.9,0.7-1.1,2-1.8,2.9c-1.4,1.4-2.7,1.8-3-1
	c-0.4-3.1-3-5.5-1.9-8.9c2.5-1.1,2.6,1.1,2.9,3c-1.5-8.2,1.3-15.5,3.5-23C145.1,121.5,145.7,121,146.1,120.1z"/>
<path class="st27" d="M101.9,88.8c0.7,0,1.5,0.1,2.2,0.1c2.6,3.1,6.5,3.2,9.2,6.1c0.8,0.8,1.7,1.4,2.5,2.2c-0.7,3.6-3.1,4.5-5.7,5.2
	c-1.6-0.4-2.4-2-3.4-3.3c-2.8-2.6-5.5-5.3-8.5-7.7C98.8,89.1,100.7,89.7,101.9,88.8L101.9,88.8z"/>
<path class="st63" d="M110,101.9c2.3-1.1,4.4-2.3,5.8-4.8c2.7,1.5,5.2,3.5,7.5,5.5c0.7,1,0.8,2.3,0,3.1c-1.6,1.7-3,4-5.5,3.9
	c-2.5-0.4-3.6-3.2-5.4-4.7C111.7,104.2,110.7,103.2,110,101.9z"/>
<path class="st36" d="M136.2,115.2c2.5,1.5,3.5,4.6,5.2,6.9c0.9,3.5-2.7,12.8-5.4,14c-0.4,0-0.9-0.1-1.3-0.2
	c-0.2-0.1-0.4-0.4-0.6-0.6c-0.4-0.9-0.3-2-0.9-2.8c-0.1-0.2-0.3-0.5-0.4-0.7c-0.3-0.8-1-1.1-1.6-1.6c-0.8-0.8-1.2-1.7-0.6-3
	c2.5,0.6,4-0.5,4.2-3.6c0-0.2,0-0.5,0.2-0.6c1.8-2,2.2-4.2,0.7-6.7C135.7,115.9,136,115.5,136.2,115.2z"/>
<path class="st28" d="M136.2,115.2c0.1,0.4,0.1,1,0.3,1.3c2.1,2.2,2,4-0.3,5.8c-0.8,0.6-0.4,1.7-0.5,2.5c-0.5,3.2-2.2,4-4.7,2.2
	c-0.7,0.4-0.8-0.3-1.1-0.7c-0.4-0.5-0.8-1-1.1-1.5c-0.5-0.8-0.8-1.7-0.8-2.8c1.5-1.9,2.6-4.1,4-6.1c1-1.5-0.8-3.3,0.9-4.3
	C134.2,112.3,134.8,114.3,136.2,115.2z"/>
<path class="st64" d="M135.6,135.3c0.9,0,2,0,2.2-1.2c0.7-4.2,3.3-7.6,3.6-12c1,0.1,2-0.1,2.9-0.6c1,4.2-1.9,7.3-2.4,11.1
	c-0.4,3.9-1.1,7.8-0.6,11.8c0.1,0.5-0.1,1.2-0.9,1.5c-0.5-1.7,0.3-4.8-2.6-4.4c-2,0.1-1.5-2.1-2.2-3.3
	C135.5,137.3,135.1,136.3,135.6,135.3z"/>
<path class="st65" d="M132.7,111.7c0.8,3.9-1.1,8.3-4.7,10.4c-0.4,0.5-0.8,0-1.2,0c-0.6-0.2-1-0.7-1.2-1.4c0.2-1.2-0.3-1.9-1.1-2.5
	c-0.8-0.8-1.7-1.6-1.2-3.1c2.4-1.8,3.6-4.9,5.2-7.6C130.6,108.1,131.5,110,132.7,111.7z"/>
<path class="st66" d="M128.6,107.5c0.5,2.4-2.7,7-5.2,7.6c-0.1,0-0.3,0-0.4,0c-1.6-0.6-2.9-1.6-3.3-3.7c2.5-1.8,5.1-3.5,6.6-6.7
	C127.1,105.7,127.9,106.6,128.6,107.5z"/>
<path class="st67" d="M126.3,104.8c-0.7,4.2-3.3,5.8-6.4,6.9c-0.2,0.3-0.4,0.3-0.7,0.1c-0.6-0.9-1.9-1.3-1.7-2.9
	c2.9-0.4,5.6-3.3,5.8-6.3C124.7,102.7,125.3,104.2,126.3,104.8z"/>
<path class="st68" d="M129.8,65.9c-0.3,5.5,0.5,11.1-0.5,16.6c0-14.6,0-29.2-0.1-43.8c0-0.7,0.1-1.4,0.6-1.8c0.4,0,0.8,0,1.1,0.1
	c0.3,2.9,0.2,5.7-0.1,8.6c-0.7,5.3-0.1,10.6-0.3,15.8C130.5,62.9,130.8,64.5,129.8,65.9z"/>
<path class="st69" d="M130.3,45.1c0.3-2.7-0.6-5.6,0.7-8.2c7.9,0,15.8,0,23.7-0.1c2.2,0,3,1.1,2.9,3.5c0,2.5,0,5.1,0,7.6
	c-0.5,0.6,0,1.7-0.6,2.3c-1.1,0-1.3-1.1-1.5-2.1c-0.1-0.7,0.1-1.4,0.2-2c0-1.6-0.2-3.1,0-4.7c0.1-1.9-0.8-2.8-2.2-2.8
	c-6.5-0.2-12.9-0.2-19.4,0c-2.6,0.1-2.2,2.6-2.3,4.6c0,0.4,0,0.8,0,1.2c0,0.6,0,1.2,0,1.8c-0.3,1.4,0.5,3.4-1.5,3.8
	C130,48.3,129.9,46.7,130.3,45.1z"/>
<path class="st70" d="M157.1,49.9c0.1-0.7,0-1.6,0.6-2.1c0,4.4,0.1,8.8,0.1,13.2c0,3.5-0.1,7.1-0.1,10.6c-1.5-0.4-1.2-1.9-1.3-3.1
	c0-3.4,0-6.8,0-10.2C156.5,55.5,155.6,52.5,157.1,49.9z"/>
<path class="st71" d="M172.7,122.1c-6.8,6.9-13.6,13.9-20.4,20.8c-2.2,0.6-2.7,4-5.1,4.3c-0.4,0.3-0.7,0.4-1.2,0.2
	c-0.6-1,0.2-1.4,0.7-1.9c0.6-0.5,1.3-0.9,1.7-1.7c0.6-1,1.3-1.9,2.1-2.6c1.1-0.6,1.8-1.6,2.7-2.4c5-4,8.1-10.1,12.1-15.2
	c2.3-2.9,4.7-5.5,7.9-6.6c1.8-0.7,3.2-2,4.6-3.5c1-1.1,2.1-2.6,3.8-1.5c0.2,0.2,0.4,0.5,0.4,0.8C179.3,116.2,175.9,119,172.7,122.1z
	"/>
<path class="st72" d="M146,147.1c0.4,0,0.8,0.1,1.3,0.1c-1,1.7-2.2,3.1-3.7,4.3c-3.2,2.3-3.6,2-4.8-2c-1.9-6.5-4.7-12.3-7.3-18.3
	c-0.2-0.6,0.1-0.8,0.5-0.9c0.6,0.3,1,0.9,1.3,1.6l0,0c0.7,0.7,0.5,2,1.2,2.8c0,0.2,0,0.5,0.1,0.7c0.9,0.6,1.1,1.9,1.7,2.8
	c0.7,1.1,0.4,2.8,1.7,3.5c0.7,2.6,1.6,5.1,2,7.8c0.5,3.3,1.6,2.7,3.2,1.2c0.3-0.8,0.6-1.5,1.2-2l0,0
	C144.8,147.9,144.9,146.6,146,147.1z"/>
<path class="st73" d="M132.1,130.5c-0.2,0.2-0.4,0.5-0.6,0.7c-0.8-0.5-1.4-1.1-1.8-2.1c0-0.9,0-1.9,0-2.8c0.4,0.2,0.8,0.5,1.1,0.7
	c0,1.2,0.1,2.2,1.2,2.8c0.2,0.1,0.2,0.3,0.2,0.5C132.2,130.4,132.2,130.5,132.1,130.5z"/>
<path class="st74" d="M150.1,103.3c-1.5,0.2-2.2,1.8-3.1,2.8c-1.3,1.4-2.3,1.5-4,0.6c-3.1-1.7-4.6-5.7-8-6.9c-1.1-1.5-2-3.1-3.6-3.9
	c-0.2-3.2,2-2.7,3.3-2.7c4.3,0,8.6-0.2,13-0.1c2,0.1,4-0.4,6.1-0.2c2.6,0.3,3,1.2,2.1,4.3c0,1,0.1,2.1-1.2,2
	C152.5,99.5,152.2,102.8,150.1,103.3z"/>
<path class="st75" d="M156,97.3c0.5-3.4-1.3-3.8-3.4-3.6c-6,0.5-11.9,0.5-17.9,0.3c-1.1-0.1-2.6,0.1-3.2,1.9
	c-0.2-0.1-0.3-0.2-0.5-0.3c-0.5-0.6-0.3-1.4-0.2-2.1c0.2-0.9,0.2-1.9,1-2.4c0.4-0.2,0.7-0.4,1.1-0.4c7.7,0.1,15.3-0.6,23,0.4
	c0.3,0.1,0.6,0.3,0.8,0.6c0.4,1.8,0.6,3.6-0.3,5.3C156.3,97.1,156.1,97.2,156,97.3z"/>
<path class="st76" d="M156.4,97.1c0-1.8,0-3.7,0-5.5c-1.6-3.3-0.5-6.8-0.8-10.2c0-2.5,0-5,0-7.5c0.1-1.6-0.2-3.3,0.5-4.9
	c0.2-0.4,0.5-0.5,0.9-0.3c0.1,1-0.1,2.1,0.5,2.9c0,7.3,0,14.7,0,22C157.6,94.9,158,96.5,156.4,97.1z"/>
<path class="st77" d="M150.1,103.3c1.7-1.1,2-4.5,4.7-4c-1.6,1.1-2.3,3.4-4.1,4.1C150.5,103.4,150.3,103.3,150.1,103.3z"/>
<path class="st78" d="M117.6,109c0.6,0.9,1.2,1.8,1.8,2.8c0.2,0.2,0.2,0.3,0.2,0.5c-0.1,0.2-0.1,0.2-0.2,0.2
	c-0.8-0.7-1.5-1.4-2.3-2.1c-1.9-0.8-2.5-3.7-4.6-4.2c-1.4-3.4-5.1-4-6.5-7.5c0.4-0.5,0.8-0.5,1.2,0c0.8,1.4,1.7,2.6,2.9,3.4
	c2.2,1.1,3.4,3.6,5.2,5.2C116,107.9,116.5,109,117.6,109z"/>
<path class="st34" d="M107.1,98.6c-0.4,0-0.8,0-1.2,0c-4.3-3.3-8.3-7.2-12.3-11.1c0.5,0,0.9-0.1,1.4-0.1c1.7,0.3,3.1,1.2,3.5,3.5
	C101.3,93.4,104.2,96,107.1,98.6z"/>
<path class="st79" d="M156.5,68.7c0,1.6,0,3.3,0,4.9c-0.8,0.2-1-0.6-1.2-1.3c-0.1-0.7-0.1-1.3-0.2-2c-0.4-1.7-1.7-1.4-2.6-1.3
	c-6.1,0.4-12.3,0.6-18.4,0.1c-0.8-0.1-1.5,0.2-1.7,1.4c-0.1,0.7-0.1,1.4-0.1,2.1c-0.3,2.2-0.7,4.4-0.5,6.6c0,0.8,0,1.6,0,2.3
	c-0.3,1.6,0.7,3.7-1.3,4.6c0-4.9,0-9.7,0-14.6c0.5-1.6,0-3.3,0.3-4.9c0.7-1.4,1.9-1.5,3-1.5c6.2,0.4,12.4,0.1,18.7-0.1
	c1.6,0,3.4-0.4,4.1,2.1C156.8,67.6,156.8,68.2,156.5,68.7z"/>
<path class="st80" d="M130.3,45.1c0,1.6,0.1,3.3,0.1,4.9c1.1,1.4,0.6,3.1,0.8,4.7c0,1.4,0,2.8,0,4.2c0,1.6,0,3.2,0,4.8
	c-0.1,0.8-0.2,1.6-0.8,2.2c-0.2,0-0.4,0-0.5,0c0-6,0-11.9,0-17.9C129.8,47,129.6,45.9,130.3,45.1z"/>
<path class="st81" d="M130.4,86c1-1.5,0.3-3.2,0.5-4.8c0.3-0.2,0.6-0.2,0.8,0.1c0.4,0.7,0.5,1.4,0.5,2.1c0,0.8,0,1.5-0.1,2.3
	c-0.5,2.6-0.6,5.3-1.2,7.9c0,0.6,0,1.3,0,1.9C129.6,92.5,130.6,89.2,130.4,86z"/>
<path class="st82" d="M130.3,65.9c0-0.7,0.1-1.4,0.1-2.1c0.3-0.5,0-1.3,0.7-1.5c0.3,0,0.5,0.1,0.7,0.4c0.2,0.4,0.3,0.9,0.3,1.4
	c0,1.1-0.7,1.7-1.1,2.6c-0.2,1.6,0.4,3.3-0.5,4.8C130.4,69.6,130.4,67.7,130.3,65.9z"/>
<path class="st83" d="M172.7,122.1c2.6-3.9,6.4-6.2,9.3-9.7c0.4-0.4,0.8-0.4,1.2,0c-2,2-3.9,4.1-5.9,6.1c-1.8,0.5-2.2,3.2-4,3.7
	C173.2,122.2,173,122.1,172.7,122.1z"/>
<path class="st84" d="M146,147.1c-0.6,0.5-1.2,1-1.7,1.4c0.1-4.2-1-8.4-0.6-12.6c0.5-5.5,2.7-10.1,5.5-14.4c0.6-0.8,1.2-1.7,0.7-2.7
	c-0.3-0.7-1,0.1-1.6-0.1c1.5-2.6,3.8-4.1,5.7-6.1c1.1-1.2,2.1-2.3,2.5-4c3.6-2.3,6.1-6.4,9.3-9.2c1.8-1.8,3.7-3.4,5.1-5.6
	c0.4,0,0.8,0,1.1,0c0.5,2.6-1.8,3.1-2.6,4.8c-1.8,2.3-3.7,4.5-6.5,6.8c6.3-1.7,11.6-5,17.4-6.1c3.6-0.7,7.2-1.8,10.8-2.1
	c1.6-0.1,3-0.8,4.4-1.5c1.2-0.6,2.4-1.7,3.8-0.3c-0.6,0.7-1.2,1.4-1.8,2c-0.8,0.5-1,1.6-1.7,2.1l0,0c-0.5,0.5-1.2,0.4-1.8,0.7
	c-0.9,0.3-1.6,1-2.3,1.7c-0.3,0.1-0.5,0.2-0.8,0.2c-5.1,0.1-9.8,2.1-14.7,3.3c-6.4,1.6-11.8,5.7-17.1,9.8
	c-8.8,6.8-13.4,16.3-11.5,29.3c0,0.6-0.3,1-0.6,1.4C146.8,146.2,146.4,146.6,146,147.1z"/>
<path class="st85" d="M153.6,139.5c-1.1,0.5-1.4,2.6-2.9,2.1c-1.4-2.6-1.1-5.5-0.4-8c1.9-6.7,4.9-12.8,10-16.9
	c6.2-5.1,12.6-9.7,20.3-10.9c0.9-0.1,1.6-0.8,2.3-1.3c0.4-0.2,0.8-0.3,1.2-0.3c1.8,0.9,3.2-1,4.9-1.1c0.3,0,0.5,0.2,0.7,0.4
	c-0.1,0.4-0.1,0.9-0.2,1.3c-0.5,0.5-1.3,0.7-1.6,1.6c-0.4,0.7-1.1,1-1.7,1.6c-0.7,0.3-1.3,0.8-1.9,1.4c-0.2,0.2-0.5,0.3-0.7,0.4
	c-5.6,0.3-10.4,3.3-15,6.7c-3.8,2.8-7.7,5.5-10.2,10.4c-1.2,2.4-2.1,4.9-3,7.4C154.9,135.9,154.4,137.8,153.6,139.5z"/>
<path class="st86" d="M184.4,104.8c-0.4,0-0.8,0-1.2,0c-4.3,1.6-8.9,2.4-13,4.9c-6.4,3.9-12.4,8.2-16.8,15.3
	c-2.8,4.5-3.7,9.6-4,14.9c-0.1,1.7-0.3,3.2-0.9,4.6c-0.4,0.3-0.8,0.3-1.2-0.1c-1.7-8.6,0.2-16.1,4.8-22.9
	c5.1-7.5,12.1-11.7,19.3-15.3c5.7-2.9,11.9-4.3,18.1-5.4c0.8-0.1,1.7,0.3,2.5,0.5c0.4,1.4-0.7,1.5-1.2,2.2c-0.3,0-0.7,0-1,0
	c-0.2,0-0.5-0.1-0.7-0.1C187.5,103.9,185.8,103.9,184.4,104.8z"/>
<path class="st64" d="M199.5,95.1c-3.6,0.6-6.7,2.9-10.5,3.2c-8.4,0.8-16.4,4-24.2,7.6c-0.9,0.4-1.9,0.6-2.7-0.5
	c2.4-2.5,4.8-5,7.2-7.6c8.8-1.3,17.3-4.8,26.3-4.8c1.3,0,2.5,0,3.7,0.3c0.6,0.4,1,0.9,0.8,1.7C199.9,95.1,199.7,95.1,199.5,95.1z"/>
<path class="st59" d="M199.5,93.7c-3.9,0.3-7.8,0.5-11.7,1c-2.3,0.3-4.6,1.4-7,1.5c-3.9,0.1-7.4,3.9-11.5,1.6
	c0.6-1.7,2.5-2.2,2.9-4.2c0.4-0.3,0.7-0.5,1.1-0.8c0.7-0.3,1.2-1,2-1.2c4.4,0.5,8.8-0.6,13.1-1.6c3.9-1,7.8-0.9,11.7-0.8
	c1.8,0,3.6-1,5.3,0.2c-0.2,0.7-0.6,1.2-1.2,1.4c-0.2,0.2-0.4,0.4-0.6,0.6c-0.8,0.6-1.4,1.4-2.2,2C200.7,93.8,200.1,94.4,199.5,93.7z
	"/>
<path class="st71" d="M186.1,107.6c0.6-0.5,1.2-0.9,1.7-1.4c0.2-0.2,0.4-0.2,0.6,0c0,1.5-1.5,1.5-1.8,2.8c-1.2,1.2-2.3,2.3-3.5,3.5
	c-0.4,0-0.8,0-1.2,0c0,0,0,0,0,0c-1.2-1-0.5-1.7,0.3-2.3c0.6-0.5,1.5-0.5,2.1-1.1v0C184.8,108.3,185.6,108.1,186.1,107.6z"/>
<path class="st60" d="M190.7,103.5c0.4-0.7,0.8-1.4,1.2-2.2c0.6-0.7,1.4-1.2,1.7-2.1c0.8,0,1.6,0,2.3,0
	C194.1,100.5,193.3,103.4,190.7,103.5z"/>
<path class="st60" d="M201.2,93c0.8-0.4,1.3-1.5,2.3-1.4c-0.6,1.1-1.3,2.1-2.3,2.7C200.9,93.9,200.9,93.4,201.2,93z"/>
<path class="st60" d="M196,99.2c0.4-0.9,0.6-2.1,1.7-2.1C197.4,98.1,197.1,99.2,196,99.2z"/>
<path class="st87" d="M188.5,106.2c-0.2,0-0.4,0-0.6,0c0.1-1.4,0.9-1.4,1.7-1.4C189.2,105.2,188.8,105.7,188.5,106.2z"/>
<path class="st61" d="M201.2,93c0,0.4,0,0.9,0,1.3c-0.4,0.3-0.8,0.5-1.2,0.8c-0.2-0.5-0.4-0.9-0.6-1.4
	C200.1,93.4,200.6,93.2,201.2,93z"/>
<path class="st58" d="M205.3,89.5c-2.7,1.1-5.7,1-8.3,0.7c-4.6-0.5-8.8,1.7-13.2,1.7c-2.9,0-5.7,2-8.7,0.4c-0.1-1.7,1.1-2.3,2-3.1
	c1.3-0.6,1.5-2.5,2.6-3.2c0.4-0.2,0.8-0.5,1.2-0.7c1,1.7,2.3,2.4,4,2c6.8-1.6,13.8-1.3,20.7-1.7c0.8-0.1,1.5-0.4,2.2-0.8
	c0.9-0.5,1.7-0.6,2.2,0.7c-0.4,0.5-0.8,0.9-1.2,1.4C207.2,87,206,87.9,205.3,89.5z"/>
<path class="st88" d="M209.9,85.3c-0.4-0.2-0.9-0.6-1-0.4c-2.1,2.6-4.9,1.6-7.3,1.6c-6.1,0.1-12.1,0.8-18.2,1.6
	c-2,0.3-2.9-0.4-2.5-2.9c1.9-2.6,3.9-5,6.4-6.9c0.2,0.3,0.2,0.6,0.2,0.9c-0.2,1-0.7,1.8-1.3,2.6c-0.4,0.6-1.3,1-0.9,1.9
	c0.3,0.7,1,0.3,1.6,0.1c5.8-1.3,11.6-1.5,17.4-0.9c2.3,0.2,4.6-0.7,6.8,0.3C210.7,84,210.3,84.7,209.9,85.3z"/>
<path class="st65" d="M187.3,79.1c0-0.3,0-0.5,0-0.8c0-0.2,0-0.4,0.1-0.6c2.2-0.6,2.7-4.1,5.2-4.3c0.6,2.2-0.9,3-1.9,4.1
	c-1.2,0.5-1.8,2.4-3.3,2.2c0,0-0.1-0.2-0.1-0.2C187.2,79.3,187.2,79.2,187.3,79.1z"/>
<path class="st64" d="M177.4,89.5c-1,0.7-1.8,1.6-2.3,2.8c-0.6,0.2-1.2,0.4-1.9,0.6c1.3-1.5,2.2-3.6,4.1-4.2
	c0.2,0.2,0.2,0.3,0.2,0.5C177.5,89.4,177.5,89.5,177.4,89.5z"/>
<path class="st59" d="M177.4,89.5c0-0.3,0-0.5,0-0.8c0.6-1.2,0.9-2.6,2.3-2.7C179.2,87.4,178.7,88.8,177.4,89.5z"/>
<path class="st28" d="M123.4,115.2c0.5,1.3,1.1,2.5,2.3,3.1c1.4,0.7,0.7,1.6,0,2.4c-1.1-2-2.9-3.2-3.5-5.5
	C122.5,114.8,123,114.8,123.4,115.2L123.4,115.2z"/>
<path class="st65" d="M123.4,115.2c-0.4,0-0.8,0-1.3,0.1c-1.3-0.4-2.2-1.5-2.8-2.8c0-0.2,0-0.5,0-0.7c0.2,0,0.4,0,0.6,0
	C120.9,113.2,122,114.4,123.4,115.2z"/>
<path class="st59" d="M126.9,122.2c0.4-0.8,0.8-0.1,1.2,0c0.4,0.8,0.7,1.7,0.6,2.7C127.6,124.3,127.3,123.2,126.9,122.2z"/>
<path class="st89" d="M165.2,85.2c0.2-0.2,0.4-0.4,0.6-0.6c0.2-0.2,0.3-0.5,0.5-0.8c0.4-2-0.3-4,0.5-5.9c1.6,0.3,3.2,0.6,4.8-0.4
	c1-0.7,2.2-0.3,3,1c-0.8,1.1-1.6,2.3-2.4,3.4c-1.4,1.8-2.7,3.8-4.6,4.9c-0.6,0.5-1.1,1.9-2,1.2C164.7,87.4,165.2,86.2,165.2,85.2z"
	/>
<path class="st90" d="M167.5,86.8c1.8-1.3,2.3-4.2,4.6-4.9c0,0.3,0.1,0.5,0.1,0.8c-0.8,1.1-1.6,2.2-2.4,3.3
	C169,86.2,168.3,86.5,167.5,86.8z"/>
<path class="st91" d="M174.5,78.4c-1.5-0.7-3-0.8-4.3,0.5c-1.5,1.4-2.5,0.7-3.3-1.2c-0.3-0.4-0.4-0.8-0.4-1.3
	c0.1-0.8,0.3-1.6,0.8-2.3c0.5-0.6,1.1-0.9,1.8-1.2c0.8-0.3,1.5-0.6,2.3-1c1.3-0.5,2.6-0.9,4-1.2c0.8-0.1,1.6-0.1,2.3-0.6
	c0.9-0.6,1.8-0.7,2.7,0.1c0.4,0.5,0.7,1,0.5,1.8C178.8,74.2,177.1,76.9,174.5,78.4z"/>
<path class="st92" d="M180.9,72.1c-0.2-0.4-0.4-0.9-0.6-1.3c0.7-1.1,1.4-2.2,2.8-1.4c-0.6,0.9-1.2,1.8-1.8,2.7c0,0-0.3,0.1-0.3,0.1
	L180.9,72.1z"/>
<path class="st93" d="M167.5,70.8c-0.1-2,1-2.5,2.3-2.8c6.3-1.4,12.3-4.2,18.2-6.8c2.6-1.1,2.1,0.9,2.1,2.5
	c-0.2,0.2-0.4,0.5-0.6,0.7c-0.9,0.5-1.9,1-2.8,1.4c-5.3,1.1-10.2,3.8-15.5,4.9C170,71,168.7,71.8,167.5,70.8z"/>
<path class="st94" d="M167.5,70.8c5.7-1.2,11.2-3.3,16.8-5.2c0.9-0.3,1.7-0.7,2.4,0.4c-0.8,1.7-2.4,2.3-3.5,3.5
	c-0.9,0.5-1.9,0.9-2.8,1.4c-0.8-0.6-1.5-0.6-2.3,0c-0.7,0.4-1.7,0-2.3,0.7c-1.4,0.5-2.7,0.9-4.1,1.4c-1-0.9-1.6,0.2-2.3,0.7
	c-0.6,0.2-1.2,0.5-1.7,0.7c-0.6-0.5-0.8-1.3-0.9-2.1c0-0.5,0-1,0.4-1.3C167.1,70.8,167.3,70.8,167.5,70.8z"/>
<path class="st37" d="M98.4,90.9c-1.2-1.2-2.3-2.3-3.5-3.5c-2-1.4-4-2.8-6-4.3c-0.3-0.2-0.8-0.5-0.4-1c0.2-0.2,0.7-0.1,1.1-0.2
	c1.2,1.5,2.7,2,4.2,2.6c2.7,1.6,5.6,2.2,8.1,4.2C101.4,91.1,99.5,90,98.4,90.9z"/>
<path class="st51" d="M221.5,74.2c-0.4,0-0.8,0-1.1,0c-0.8,0.7-1.6,0.6-2.5,0.5c-5.9-0.5-11.7-1.2-17.6-1.3c-1.9,0-4-0.2-4.3-3.4
	c1.2-1.2,2.3-2.3,3.5-3.5c0.8-0.5,1.6-0.9,2.3-1.4c1.3,1.4,2.8,1.9,4.5,1.8c5.5-0.1,10.9,0.6,16.4,1.4c1,0.2,1.9,0.3,2.4,1.6
	C223.9,71.5,222.7,72.8,221.5,74.2z"/>
<path class="st50" d="M196,70.1c1.5,2.8,3.8,2.3,6.2,2.4c6.1,0.3,12.1,1.1,18.2,1.7c-0.6,0.7-1.2,1.4-1.7,2.1
	c-0.8,0.6-1.5,1.5-2.6,1.2c-5.4-0.7-10.9-1.3-16.4-1c-1.5,0.1-2.9-0.3-4.3-0.5c-1.8-0.3-2-1.5-1.1-3.2
	C194.7,71.8,194.9,70.6,196,70.1z"/>
<path class="st50" d="M194.2,72.8c0.1,1.1-0.4,2.2,1.5,2.3c6.4,0.2,12.9,0.8,19.3,1.2c0.5,0,0.9,0.2,1.3,0.7c0.4,0.8-0.3,1-0.6,1.4
	l0,0c-0.9,0.7-1.9,1-3,0.9c-5.9-0.8-11.9-0.6-17.8-0.6c-1.7,0-3.5,0.3-4.7-1.7c1-1,2-2,2.3-3.6c0-0.2,0-0.4,0-0.6
	c0.2-0.3,0.4-0.3,0.6,0C193.5,72.8,193.8,72.8,194.2,72.8z"/>
<path class="st95" d="M193.1,72.8l-0.3,0c0,0-0.3,0-0.3,0c0-0.2,0-0.5,0-0.7c0.4-0.7,0.8-1.3,1.2-2c0.2,0,0.4,0,0.7,0.1
	C194.3,71.3,193.4,71.9,193.1,72.8z"/>
<path class="st96" d="M121.7,81.9c-4.6-1.1-9.3-2.2-13.9-3.5c-0.9-0.3-1.6-0.6-2.7-0.1c-1.9,0.9-5.6-1.2-6.7-3.4
	c-0.4-0.7-0.3-1.5-0.1-2.2c1.4-1.2,2.8-0.5,4.2-0.1c5.7,1.7,11.3,3.4,17.2,4.3c0.9,0.1,1.7,0.6,2.2,1.5
	C122.1,79.7,122.5,80.8,121.7,81.9z"/>
<path class="st97" d="M98.4,72.9c0,0.7,0,1.4,0,2.1c0,0-0.3,0-0.3,0s-0.3,0-0.3,0c0-3.9,0-7.9,0-11.8c0.7-1.1-0.2-2.6,0.6-3.7
	c3.4-0.7,6.3,1.6,9.4,2.5c3.8,1.1,7.5,2.6,11.4,3.3c0.9,0.1,1.7,0.4,2.3,1.2c0.4,0.9,0.2,1.8,0.2,2.7c-0.7,1.6-1.7,1-2.7,0.7
	c-5.7-1.6-11.4-3.1-17-5.1c-1.1-0.4-2.5-1.1-2.9,1.3c0,0.7,0,1.4-0.1,2.1c0,1.1,0,2.2-0.1,3.3C99,72,98.7,72.4,98.4,72.9z"/>
<path class="st43" d="M121.7,81.9c0-1.2,0-2.3,0-3.5c-0.1-0.2-0.2-0.3-0.2-0.5c0-0.2,0.1-0.3,0.1-0.3c0.2-0.2,0.5-0.2,0.7,0.1
	c0.6,3.9,1.1,7.9,0,11.8C122.1,86.9,122.7,84.3,121.7,81.9z"/>
<path class="st98" d="M122.2,77.7c-0.2,0-0.4,0-0.6,0c-0.4-0.3-0.5-0.8-0.6-1.3c-0.1-1.4-0.7-2.6-1.9-2.7c-6.2-0.3-11.9-3.7-18-4.7
	c-0.9-0.2-2-0.1-2.7-1c0-0.7,0-1.4,0-2.1c1.2-1.2,2.6-1.1,3.9-0.6c6.2,2.4,12.8,3.3,19,5.7c0.5,0.2,0.7,0.7,0.9,1.1
	C122.2,74,122.2,75.9,122.2,77.7z"/>
<path class="st99" d="M122.2,72.2c-0.2-0.2-0.4-0.5-0.6-0.7c-0.5-0.7-0.4-1.4,0-2.1c0-0.9,0-1.9,0-2.8c-0.6-0.7-0.7-1.6-0.7-2.6
	c0-0.8,0.1-1.5,0.5-2.1c0.2-0.3,0.5-0.4,0.8-0.1C122.2,65.2,122.2,68.7,122.2,72.2z"/>
<path class="st100" d="M122.2,61.8c-0.2,0-0.4,0-0.6,0c-0.9-1.2-0.7-2.3,0-3.5c0.2-0.2,0.4-0.5,0.6-0.7
	C122.2,59,122.2,60.4,122.2,61.8z"/>
<path class="st101" d="M121.6,58.3c0,1.2,0,2.3,0,3.5c0,0.7,0,1.4,0,2.1c-0.6,1.3-1.4,0.7-2.3,0.6c-5.9-1-11.6-3.4-17.3-5.4
	c-1.4-0.5-2.6-0.9-3.7,0.6c-0.1,1.2,0.4,2.5-0.6,3.4c0.2-2.8-0.6-5.6,0.5-8.3c3.3,0,6.6,0,9.9,0C112.6,56.9,117.4,56.1,121.6,58.3z"
	/>
<path class="st102" d="M207.6,46.5c1.2-0.5,2.3-0.9,3.5-1.4c2,2.8,4.7,1.6,7.1,1.9c3.9,0.5,7.7,1.2,11.5,1.6
	c5.2,0.5,10.2,3.7,15.6,2.1c0,0.9,0,1.8,0,2.8c-3.4,1.8-6.6-0.4-9.9-1.1c-8.5-1.9-17.1-3-25.8-3.4C208.6,48.9,206.9,49,207.6,46.5z"
	/>
<path class="st51" d="M246.5,51.3c0,2.3,0,4.6,0,7C245.6,56,245.6,53.7,246.5,51.3z"/>
<path class="st103" d="M247.1,67.3c-0.9-0.1-1.7-0.5-2.3-1.4c1-1,1.7-0.1,2.3,0.7c0.2,0.2,0.2,0.3,0.1,0.5
	C247.2,67.2,247.1,67.3,247.1,67.3z"/>
<path class="st51" d="M247.1,67.3c0-0.2,0-0.5,0-0.7c0.1-1.2-0.4-2.5,0.6-3.5C247.5,64.5,248.2,66.1,247.1,67.3z"/>
<path class="st103" d="M239.6,64.5c-0.6-0.4-1.2-0.9-1.8-1.3C239.2,62.1,239.4,63.3,239.6,64.5z"/>
<path class="st104" d="M218.1,42.3c0.4-0.4,0.8-0.9,1.2-1.3c1.3-0.3,2.7-0.5,4-0.8c2.6,2.1,5.6,2.1,8.5,2.6c3.1,0.6,6.3,0.6,9.3,1.8
	c1.1,0.5,2-0.6,3.1-0.3c0.6,0.8-0.1,2,0.6,2.8c0.2,0.2,0.4,0.5,0.6,0.7c-2.5,1.7-4.8-0.6-7.2-0.7c-6.3-0.5-12.4-2.6-18.7-2.7
	C218.2,44.4,217.4,44,218.1,42.3z"/>
<path class="st44" d="M244.8,47.2c-0.9-0.7-0.5-1.8-0.6-2.8c0-0.9,0-1.8,0-2.8c0.2-0.3,0.4-0.3,0.6,0c0,0.9,0,1.9,0,2.8
	C244.8,45.3,244.8,46.2,244.8,47.2z"/>
<path class="st44" d="M243,31.2c1.1,1.5,0.4,3.2,0.6,4.9C242.5,34.6,243.3,32.8,243,31.2z"/>
<path class="st105" d="M244.8,41.6c-0.2,0-0.4,0-0.6,0c0-1.4,0-2.8,0-4.2C245.2,38.7,244.6,40.2,244.8,41.6z"/>
<path class="st106" d="M225,70.1c-3.9-0.8-7.7-1.6-11.7-1.7c-3.2-0.1-6.5-0.3-9.7-0.4c-1.5-0.1-1.9-1.2-1.9-2.8
	c0.8-0.9,1.6-1.8,2.3-2.8c0.5,1.3,1.4,1.3,2.4,1.4c7.4,0.3,14.7,0.7,22,2.8c-0.2,0.2-0.4,0.5-0.6,0.7
	C227.1,68.4,225.7,68.7,225,70.1L225,70.1z"/>
<path class="st107" d="M184.4,18c1.2,0,2.3,0,3.5,0c-2,2.3-3.2,5.3-4.9,7.9c-4.2,6.5-10.2,9.9-16,13.6c-0.4-0.6-0.3-1.3-0.2-1.9
	c0.6-2.4,2.3-3.7,3.9-4.8c4.5-3,8.4-6.8,11.1-12.2C182.4,19.4,183.5,18.9,184.4,18z"/>
<path class="st108" d="M191.3,36c0,2.8,0,5.5,0,8.3c-1.4-0.2-1.1-1.5-1.2-2.5c0-0.9,0-1.7,0-2.6c0-1.3-0.4-2-1.6-1.5
	c-0.9,0.4-1.7,1.1-2.4,1.8c-5.3,5.3-12.1,6.7-18,10.6c-0.5,0.3-1.1,0.4-1.6-0.2c0-0.5,0-0.9,0-1.4c0.2,0,0.4,0,0.5,0
	c0.5-2,1.7-3.1,3.1-3.7c6.1-2.7,11.8-6.4,16.9-11.2c1.1-1,2.4-2.3,3.8-0.3C190.8,34.2,190.5,35.3,191.3,36z"/>
<path class="st109" d="M190.7,33.3c-1.5-0.7-2.5,0.1-3.6,1.2c-4.8,4.6-10.1,8.2-15.9,10.6c-1.7,0.7-3,2-4.2,3.4c0-0.9,0-1.8,0-2.8
	c0.8-1.9,2.2-2.8,3.8-3.6c5.9-2.8,11.3-6.5,15.9-11.7c1.1-1.2,2.4-2.4,4.1-1.4C190.7,30.5,190.7,31.9,190.7,33.3z"/>
<path class="st110" d="M167,43.7c0.8-2.8,2.9-3.8,4.9-4.9c5.5-3.1,10.1-7.5,14.3-12.7c1.2-1.5,1.3-4.2,3.8-4.9
	c0.4,1.5,0.9,2.9,0.9,4.5c-2.1,1.6-3.5,4-5.3,5.9c-5.2,5.5-11.5,8.8-17.7,12.3C167.5,44,167.2,43.9,167,43.7z"/>
<path class="st111" d="M167,43.7c6.7-4.4,13.9-7.8,19.5-14.3c1.2-1.4,1.7-4.4,4.3-3.7c0,1.2,0,2.3,0,3.5c-3.9,0.4-5.7,4.8-8.7,6.9
	c-3.2,2.3-6.4,4.5-9.8,6.3c-1.9,0.9-3.6,2.1-5.3,3.4C167,45.1,167,44.4,167,43.7z"/>
<path class="st112" d="M167,37.5c0,0.7,0,1.4,0,2.1c0,0.7,0.1,1.5-0.5,2.1c0.2-2.1-0.6-4.3,0.5-6.2C167.4,36.1,167.3,36.8,167,37.5z
	"/>
<path class="st113" d="M167,70.8c0,0.5,0,0.9,0,1.4c0.5,1.2,0.3,2.4,0.1,3.5c-1.1,2.9,0.2,6-0.7,8.9c-0.2,0-0.3,0-0.5-0.1
	c0-4.9,0.1-9.8,0.1-14.7c0.3-1.9,0-3.9,0.1-5.8c0.3-0.8,0.2-1.8,0.6-2.6c0.9-1.4,2.2-1.9,3.5-2.3c5.5-1.7,10.8-4,16.1-6.5
	c1.2-0.6,2.5-1.3,3.9-0.6c0,0.7,0,1.4,0,2.1c-0.4,1-1.3,1.3-2.1,1.7c-5.1,2.8-10.4,4.6-15.7,6.9c-3.9,0.6-4.7,1.3-5.5,5.2
	C167,68.9,167,69.9,167,70.8z"/>
<path class="st114" d="M167,68c0.3-5,1.6-6.4,5.2-5.5c5.1-2.1,10.4-3.5,15.2-6.4c0.9-0.5,1.8-0.7,2.8-0.5c0,0.7,0,1.4,0,2.1
	c-6.2,1.7-11.9,5.4-18.2,6.6C169.7,64.7,168,65.5,167,68z"/>
<path class="st115" d="M166.4,63.8c-0.3,2,0.4,4.1-0.5,6.1c0-5.3,0-10.6,0-15.9c0.8-1.2,0.2-2.7,0.5-4c7-4.1,14.8-6.4,21-12.5
	c1.4-1.4,3.2-2.5,3.4,1.4c-6.7,4.2-13.2,9-20.5,11.7c-1.2,0.4-2.2,1.4-2.4,3.1c-0.1,0.7-0.1,1.4-0.1,2.1c0,0.7,0,1.4-0.1,2.2
	C167.3,59.9,166.6,61.8,166.4,63.8z"/>
<path class="st116" d="M167,37.5c0-0.7,0-1.4,0-2.1c0-0.7,0-1.4,0-2.1c0.2-0.2,0.4-0.4,0.6-0.7c3-3,6.9-4.8,9.3-8.8
	c0.3-0.5,0.8-0.8,0.9-1.3c0.7-2.6,2.3-3.8,4.3-4.5c0.8,0,1.5,0,2.3,0c-3.7,6.3-7.5,12.4-13.7,15.7C169.2,34.4,168.2,36.2,167,37.5z"
	/>
<path class="st117" d="M182,18c-4.4,5.7-8.3,12-14.5,15.3c-0.6-1-0.4-2.1,0.3-2.8c3.6-4.1,6.8-8.8,10.8-12.4
	C179.7,18,180.9,18,182,18z"/>
<path class="st118" d="M167,28.4c-0.3-2.6,0.4-5,0.6-7.5c0.1-2,0.8-3.3,2.9-2.9c1.7,0.3,3.5,0.1,5.2,0.1c0.5,2.8-2.1,3.1-2.8,5
	c-0.8,2.2-3,3.4-4.4,5.3C168.1,28.9,167.5,29,167,28.4z"/>
<path class="st112" d="M167,28.4c2.2-0.8,3.2-3.4,4.8-5.1c1.4-1.5,2.5-3.6,3.9-5.3c1,0,1.9,0,2.9,0c-2.3,3.1-4.1,6.5-6.9,9
	c-1.8,1.6-3.6,3.3-4.1,6.2c0,0-0.3,0-0.3,0s-0.3,0-0.3,0C167,31.7,167,30.1,167,28.4z"/>
<path class="st119" d="M167,55.5c0-0.7,0-1.4,0-2.1c1.1-1.8,2.6-2.6,4.3-3.2c5.4-2.1,10.7-4.4,15.5-8.2c1.2-0.9,2.6-2.5,4-0.4
	c0.1,0.9-0.2,2,0.5,2.7c0,2.1,0,4.2,0,6.3c-0.2,0-0.3,0-0.5,0c-0.1-0.1-0.2-0.2-0.3-0.4c-0.4-0.8-0.4-1.6-0.4-2.5
	c0.1-2.5-0.5-3.5-2.6-1.9c-6.1,4.6-13,6.6-19.6,9.7C167.5,55.8,167.2,55.7,167,55.5z"/>
<path class="st120" d="M190.2,52c-7.7,3.2-15.5,6.5-23.2,9.7c-0.5-2.5,0.7-3.7,2.3-4.4c6.3-2.5,12.6-4.9,18.8-8
	c1.1-0.6,2.3-0.7,2.7,1.3c0,0,0,0,0,0C190.7,51.2,190.6,51.7,190.2,52z"/>
<path class="st114" d="M190.2,55.5c-5.1,2.7-10.4,4.8-15.7,6.8c-0.7,0.3-1.5,0.1-2.3,0.1c0.9-1.1,2-1.8,3.2-2.1
	c5.2-1.1,9.7-4.6,14.8-6.3C190.2,54.6,190.2,55,190.2,55.5z"/>
<path class="st51" d="M225,70.1c0.4-1.7,1.6-2.4,2.9-2.8C227.7,69.3,226,69.2,225,70.1z"/>
<path class="st49" d="M190.2,77c3.5,1.6,7.2,0.3,10.8,0.6c4.9,0.3,9.8,0.1,14.7,0.8c-0.8,1.1-1.6,2.3-2.3,3.4c-0.2,0-0.4,0-0.6,0
	c-4.1,1.2-8.2,0.3-12.3,0.5c-3.4,0.2-6.9,0.1-10.3,0.3c-1.5,0.1-3.2,0.6-4.1-1.5c0.4-0.7,0.8-1.4,1.2-2.1
	C188.2,78.4,189.2,77.7,190.2,77z"/>
<path class="st49" d="M215.7,78.4c0.2-0.5,0.4-0.9,0.6-1.4c0.8-0.2,1.5-0.5,2.3-0.7C218,77.7,217.1,78.6,215.7,78.4z"/>
<path class="st65" d="M186.1,81.2c2.9,1.8,6,0.3,8.9,0.4c5.9,0.1,11.8-0.3,17.8,0.3c-0.6,0.5-1.2,0.9-1.7,1.4
	c-3.6,1.6-7.4-0.2-11,0.4c-4.3,0.7-8.6-0.5-12.8,1.1c-1.2,0.5-2.9,1.4-3.4-0.1C183.4,83.4,184.7,81.8,186.1,81.2z"/>
<path class="st84" d="M144.3,148.5c0,1-0.4,1.7-1.2,2C142.3,148.9,143,148.4,144.3,148.5z"/>
<path class="st64" d="M134.4,134.6c-1.1-0.5-1.2-1.6-1.2-2.8C134.8,132.1,134.3,133.5,134.4,134.6z"/>
<path class="st62" d="M136.2,138.1c-1-0.5-1.3-1.7-1.7-2.8c0.4,0,0.7,0,1.1,0C136,136.2,136.3,137.1,136.2,138.1z"/>
<path class="st64" d="M132.1,130.5c0-0.2,0-0.5,0-0.7c0.6,0.5,1.9,0.5,1.2,2.1C132.9,131.4,132.5,130.9,132.1,130.5z"/>
<path class="st121" d="M130.9,43.7c0-6.2,0-6.2,5.1-6.2c5.5,0,11,0,16.5,0c3.9,0,3.9,0,3.9,4.8c-0.2,0.2-0.5,0.3-0.8,0.1
	c-1-0.9-2.1-0.3-3.1-0.3c-6.4,0.3-12.7,0.7-19.1,0.2c-0.6,0-1.1,0.4-1.5,0.9C131.7,43.6,131.4,43.9,130.9,43.7z"/>
<path class="st109" d="M157.1,49.9c0,2.8,0,5.5-0.1,8.3c-1,0.1-1.2-0.8-1.5-1.6c-0.3-1.1,0.1-2.1,0.1-3.1c0.1-2.1-1.2-2-2.3-2
	c-4.3-0.1-8.6,0.8-13,0.4c-2.4-0.2-4.8-0.7-7.2-0.2c-0.8,0.2-1.5-0.3-1.9-1.2c-0.2-1.6,0.3-2.1,1.7-2.4c2.2-0.5,4.5-0.1,6.6,0.1
	c5.5,0.3,10.9-1.1,16.4-0.3C156.3,48.6,156.7,49.2,157.1,49.9z"/>
<path class="st122" d="M131,45.8c0-0.5,0-0.9,0-1.4c4.5-0.3,9-0.3,13.5-0.3c2.7,0,5.4,0,8.1-0.4c1.4-0.2,3.8-1,3.6,2.6
	c-0.4,0.9-1.1,1.1-2,1.2c-6.8,0.8-13.7,0.9-20.5,0.4C132.3,47.9,131.5,47.1,131,45.8z"/>
<path class="st123" d="M155.9,46.5c0.1-2.7-1.8-2.2-2.8-2c-4.9,1.1-9.7,0.2-14.6,0.6c-2.6,0.2-5.1,0.2-7.6-0.7c0-0.2,0-0.5,0-0.7
	c0.2-0.2,0.4-0.5,0.6-0.7c3.5-1.1,7-0.6,10.5-0.6c3.8-0.1,7.6,0.1,11.4-0.5c0.9-0.1,1.7-0.1,2.5,0.4c0.2,0,0.4,0,0.6,0
	c-0.6,1.4,0.3,2.8,0,4.2C156.3,46.8,156.1,46.8,155.9,46.5z"/>
<path class="st111" d="M155.9,46.5c0.2,0,0.4,0,0.6,0c-0.2,0.5-0.4,0.9-0.6,1.4c-4.8,1.2-9.6,1.4-14.5,1.1c-3-0.2-6,0.1-9,0.1
	c-1.3,0-0.8,0.9-0.9,1.6c0.1,1.3,0.3,2.7-0.3,4c-0.1,0.1-0.2,0.2-0.3,0.3c-0.1,0-0.3-0.1-0.4-0.1c0-1.6-0.1-3.2-0.1-4.8
	c0.9-1.2,0.4-2.8,0.5-4.2c1,0.7,1.9,1.3,3.1,1.4C141.4,48,148.7,47.3,155.9,46.5z"/>
<path class="st124" d="M155.9,56.9c0.4,0.5,0.7,0.9,1.1,1.4c0,3.5,0,7,0.1,10.4c0,0-0.3,0-0.3,0s-0.3,0-0.3,0c0-0.5,0-0.9,0-1.4
	c-0.4-0.6-0.3-1.4-0.6-2c-0.3-1.5,0-3.2-0.7-4.7c-0.4-1.1-1.1-0.9-2-0.9c-6.3,0.6-12.6,0.4-19,0.2c-1,0-2.1,0.1-3-1
	c-0.6-2.2,0.8-2.5,2-2.8c1.7-0.4,3.2,0.5,4.9,0.4c3.9-0.1,7.9,0.3,11.8-0.5C152,55.7,154,55.6,155.9,56.9z"/>
<path class="st87" d="M184.4,108.9c-0.1,1.8-3,1-2.3,3.5c-0.7,0.1-1.5-0.7-2.2,0.2c-2.4,3-5.4,4.9-8.7,6.3c-3.8,1.7-5.5,6.2-8.2,9.4
	c-3.2,3.7-5.4,8.5-9.4,11.2c0.9-5,2.1-9.6,4.8-13.9c5.6-8.7,13.4-12.9,21.7-16.2C181.5,108.8,182.9,109.1,184.4,108.9z"/>
<path class="st60" d="M148.4,144.3c0.4-3.6,0.3-7.2,0.9-10.8c1.6-8.7,6.8-14,12.3-19c4.8-4.4,10.6-6.5,16-9.2
	c1.4-0.7,3.7-0.8,5.6-0.5c-0.4,1.2-1.4,1.8-2.3,1.9c-7.1,0.9-13.1,5-18.8,9.6c-7.4,6-12,14-11.4,25.2c-0.6,0.9-1.2,1.9-1.8,2.8
	C148.7,144.6,148.6,144.6,148.4,144.3z"/>
<path class="st85" d="M148.4,144.3c0.2,0,0.4,0,0.6,0c-0.3,0.9-0.9,1.4-1.7,1.4c0-0.5,0-0.9,0-1.4
	C147.6,144.3,148,144.3,148.4,144.3z"/>
<path class="st125" d="M131.5,83.3c0-0.7,0-1.4,0-2.1c3.4-1.4,6.8,0,10.3-0.2c4.6-0.3,9.2-0.3,13.8-0.3c0.3,0.1,0.6,0.2,0.9,0.5
	c0,3.5,0,6.9,0,10.4c0,0-0.3,0-0.3,0l-0.3,0c-0.5-0.5-0.7-1.2-0.7-1.9c-0.1-0.7-0.1-1.4,0-2.1c0-0.8,0.1-1.6-0.2-2.4
	c-3-1.6-6.2-0.9-9.3-0.5c-4.3,0.5-8.6-0.7-12.9-0.2C132.2,84.5,131.8,83.8,131.5,83.3z"/>
<path class="st126" d="M155.9,89.5c0,0.7,0,1.4,0,2.1c-8.1,0-16.3,0-24.4,0c-0.4-0.9-0.5-1.7,0.2-2.5c1-0.7,2-0.6,3.1-0.6
	c5.9,0,11.7,0,17.6,0C153.6,88.5,154.9,88.4,155.9,89.5z"/>
<path class="st127" d="M131.5,89.5c0,0.7,0,1.4,0,2.1c0,0.8,0.1,1.6-0.6,2.1c0-2.8-0.2-5.6,0.6-8.3c5.1-1.4,10.3-0.1,15.5-0.5
	c3-0.2,5.9-0.5,8.9-0.2c0,0.9,0,1.8,0,2.8c-5.8,1.6-11.6,0.9-17.4,1.3C136.2,88.8,133.7,87.4,131.5,89.5z"/>
<path class="st128" d="M156.5,81.2c-0.2,0-0.4,0-0.6,0c-0.5-0.5-0.7-1.2-0.7-2c-0.1-0.7,0-1.4-0.1-2.1c-0.2-2-1.5-1.9-2.6-1.8
	c-5.9,0.5-11.9,1-17.8,0.4c-1.1-0.1-2.1,0.4-2.4,1.9c-0.1,0.5-0.3,1-0.5,1.4c-0.2,0.3-0.5,0.3-0.8,0.1c-0.3-2.4,0.3-4.6,0.6-6.9
	c1.1-0.8,2.4-1.1,3.6-0.9c5.4,0.8,10.9-0.2,16.3-0.1c1.5,0,3.1-0.1,4.5,0.9c0,0.6,0.1,1.1,0.6,1.4C156.5,76.1,156.5,78.7,156.5,81.2
	z"/>
<path class="st97" d="M131.5,70.1c-0.1-1.7,0.7-2.2,1.9-2.1c6.7,0.9,13.5,0.3,20.2,0c1.3-0.1,2.4,0,2.2,2.1
	c-0.3,0.6-0.7,1.2-1.3,1.1c-7.1-0.5-14.3,0.7-21.4,0C132.4,71.2,131.9,70.8,131.5,70.1z"/>
<path class="st129" d="M156.5,65.2c0,0.7,0,1.4,0,2.1c-1.5-2.3-3.5-1.4-5.3-1.3c-5.8,0.1-11.6,0.5-17.4,0c-1-0.1-1.9,0.1-2.8,0.7
	c0.2-0.9,0.4-1.8,0.6-2.8c1.8-1.3,3.7-0.8,5.6-0.6c6.2,0.8,12.3-0.8,18.4-0.4C156.6,63.3,155.9,64.6,156.5,65.2z"/>
<path class="st130" d="M131,79.1c0.2,0,0.4,0,0.6,0c5.5-0.8,11.1-0.2,16.7-0.3c2.6,0,5.2-0.8,7.7,0.3c0,0.7,0,1.4,0,2.1
	c-2.1,1.2-4.3,0.5-6.5,0.6c-5.6,0.3-11.3,0-16.9-0.1c-0.4,0-0.7-0.3-1.1-0.5c-0.2,0-0.4,0-0.6,0C131,80.5,131,79.8,131,79.1z"/>
<path class="st131" d="M131.5,70.1c3.3,0.6,6.7,0.5,10,0.4c4.8-0.2,9.6-0.3,14.4-0.4c0,0.7,0,1.4,0,2.1c-8.1-0.1-16.3,0.6-24.4,0
	C131.5,71.5,131.5,70.8,131.5,70.1z"/>
<path class="st132" d="M131,62.4c-0.2,0.4-0.3,0.9-0.5,1.3c0-1.6,0-3.2,0-4.8c0.3-0.1,0.6,0.1,0.7,0.4
	C131.7,60.5,131.6,61.5,131,62.4z"/>
<path class="st108" d="M130.9,59c-0.1,0-0.3,0-0.4,0c0-1.4,0-2.8,0-4.2c0.1,0,0.3,0,0.4,0c1,1.1,0.1,2.5,0.3,3.7
	C131.1,58.7,131,58.8,130.9,59z"/>
<path class="st133" d="M155.9,84.7c-3.4,1.6-7,1-10.6,1.2c-4.2,0.2-8.5-0.5-12.8,0c-0.3,0-0.7-0.3-1.1-0.5c0-0.7,0-1.4,0-2.1
	c4.8,0.2,9.5,1.1,14.3,0.5c3.3-0.4,6.6-0.4,9.9,0.3C155.8,84,155.9,84.4,155.9,84.7z"/>
<path class="st120" d="M155.9,63.1c-2.2,1.3-4.6,0.3-6.8,0.8c-5.9,1.2-11.7,0-17.6-0.1c0-0.5,0-0.9,0-1.4c-0.2-0.5-0.1-0.8,0.4-1
	c4.9-0.2,9.8,0,14.6,0c2.4,0,4.7-1.1,7.1-0.6C154.7,61,156.4,60.6,155.9,63.1z"/>
<path class="st134" d="M131.5,61.8c0,0.2,0,0.5,0,0.7c-0.2,0-0.4,0-0.6,0c0-1.2,0-2.3,0-3.5c0,0,0,0,0,0c0.2-0.3,0.4-0.3,0.6,0
	c7.6-0.1,15.1,0.8,22.7-0.5c0.9-0.2,2,0.1,1.7,1.9c-2.8,1.4-5.7,0.5-8.6,0.9C142.1,62,136.8,60.8,131.5,61.8z"/>
<path class="st61" d="M193.7,99.2c-0.1,1.3-0.6,2-1.7,2.1C191.9,99.9,192.9,99.7,193.7,99.2z"/>
<path class="st60" d="M184.4,104.8c1.1-2.6,3-1.6,4.6-1.4C187.5,104.2,186.3,106.3,184.4,104.8z"/>
<path class="st87" d="M186.1,107.6c-0.3,0.9-0.9,1.4-1.7,1.4C184.4,107.5,185.3,107.5,186.1,107.6z"/>
<path class="st90" d="M166.3,84.6c0.4-3-0.7-6.1,0.6-9c0.2,0.2,0.2,0.3,0.2,0.5c-0.1,0.2-0.1,0.2-0.2,0.2c0,0.5,0,0.9,0,1.4
	C166.7,80,167.6,82.5,166.3,84.6z"/>
<path class="st92" d="M167,76.3c0-0.2,0-0.5,0-0.7c0-1.2,0-2.3,0-3.5c0.7,0.5,0.6,1.3,0.6,2.1C167.5,75,167.6,75.8,167,76.3z"/>
<path class="st92" d="M175.7,71.5c0.6-1,1.4-1.3,2.3-0.7C177.4,71.8,176.5,71.4,175.7,71.5z"/>
<path class="st92" d="M169.3,73.6c0.6-1.1,1.2-2,2.3-0.7C170.8,73.1,170,73.3,169.3,73.6z"/>
<path class="st135" d="M121.6,76.3c0,0.5,0,0.9,0,1.4c0,0.2,0,0.5,0,0.7c-5-1.2-10.1-2.1-15.1-3.6c-2.7-0.8-5.3-1.7-8.1-2
	c0-0.5,0-0.9,0-1.4c1.1-1.6,2.5-1.8,3.9-1.2c5.4,2.3,11.2,2.8,16.8,4.5C120.1,75.1,120.9,75.5,121.6,76.3z"/>
<path class="st136" d="M121.6,76.3c-6-1.9-12.3-2-18.2-4.8c-1.6-0.7-3.3-1-5-0.1c0-1.2,0-2.3,0-3.5c3.4,0,6.6,1.1,9.8,2.1
	c3.3,1.1,6.6,2.9,10.2,2.5C120.7,72.4,121.7,73.7,121.6,76.3z"/>
<path class="st79" d="M98.4,59.7c-0.4-3.9,1.9-2.3,3.1-1.8c4.6,1.9,9.4,3.3,14.1,4.8c2,0.6,4,0.8,6,1.2c0,0.9,0,1.8,0,2.8
	C113.7,65.5,106.2,61.9,98.4,59.7z"/>
<path class="st137" d="M121.6,69.4c0,0.7,0,1.4,0,2.1c-2.9,0.3-5.4-1.4-8.2-1.8c-5.1-0.9-9.8-3.7-15.1-3.7c-0.1-2.7,1.3-3.3,3-2.6
	c6.3,2.9,13.1,3.6,19.4,6.3C121,69.8,121.4,69.5,121.6,69.4z"/>
<path class="st138" d="M190.7,41.6c-1.3-0.7-2.4,0.1-3.4,0.9c-4.7,3.9-10,6.1-15.4,8.2c-1.8,0.7-3.3,1.7-4.9,2.7
	c0.3-2.3,1.7-3.4,3.3-3.9c6.3-2.3,12-5.7,17.4-10c1-0.8,2-0.5,3.1-0.6C190.7,39.8,190.7,40.7,190.7,41.6z"/>
<path class="st139" d="M190.7,50.6c-0.7-1.2-1.7-1-2.5-0.5c-1.7,1.1-3.6,1.6-5.3,2.5c-3.9,2.2-8.1,3.4-12.1,5
	c-1.8,0.7-3.6,1.3-3.8,4.1c0,0.7,0.1,1.5-0.5,2c-0.2-2.1,0-4.2,0.5-6.2c0.5-1.2,1.3-2,2.3-2.4c6.4-2.2,12.5-5.1,18.5-8.5
	c1.2-0.7,2.4-1,2.9,1.2C190.7,48.8,190.7,49.7,190.7,50.6z"/>
<path class="st140" d="M190.7,47.9c-2.2-2.1-4.2,0.1-5.6,1.2c-4.9,3.4-10.4,4.7-15.6,7.1c-0.9,0.4-1.7,1-2.5,1.5c0-0.7,0-1.4,0-2.1
	c3.3-2.4,7-3.4,10.6-5c3.4-1.4,6.5-3.4,9.6-5.4C190.4,43,190.5,43,190.7,47.9z"/>
<path class="st141" d="M155.9,42.3c-8.1,1.5-16.3,0.7-24.4,0.7c0.3-1.4,1.3-1.8,2.3-1.7c7,0.8,14,0.5,20.9-0.5
	C156.1,40.6,155.9,41.4,155.9,42.3z"/>
<path class="st132" d="M131.5,59c-0.2,0-0.4,0-0.6,0c0-1.4,0-2.8,0-4.1c0,0,0,0,0,0c0.2-0.2,0.5-0.4,0.8-0.5
	c3.8-0.8,7.7,0.2,11.5-0.1c4.1-0.3,8.2-0.4,12.4-0.5c0.3,0.1,0.6,0.2,0.8,0.5c-0.4,0.9-0.7,1.8-0.6,2.8c-7-0.2-13.9,1.8-21,0.1
	C133.8,56.7,131.7,56,131.5,59z"/>
<path class="st108" d="M156.5,54.1c-0.2,0-0.4,0-0.6,0c-2.8-1.7-5.7-0.4-8.5-0.2c-3.5,0.3-6.9,0.2-10.3-0.1
	c-1.9-0.2-3.9-0.6-5.6,0.9c-0.2,0-0.4,0-0.6,0c0.2-1.4-0.5-2.9,0.6-4.1c3.7,0.2,7.5,0.5,11.2,0.5c3.6,0,7.2-0.1,10.8-0.6
	C156.1,50.2,156.7,51.5,156.5,54.1z"/>
<path class="st82" d="M131.5,61.8c3.2-2.8,6.9-1.2,10.3-1.2c2.9,0,5.9,0,8.8-0.4c1.9-0.3,3.5,1,5.3,0.2c0.8,1.5,0.6,3.2,0.6,4.8
	c-0.7-0.5-0.5-1.3-0.6-2.1c-1.8-2.8-4.2-1.2-6.3-1C143.6,62.4,137.5,63.1,131.5,61.8z"/>
<path class="st142" d="M131.5,89.5c-0.1-2.7,1.8-2.1,2.8-2c5.7,0.5,11.4,0.3,17.1-0.1c1.5-0.1,3-0.8,4.5,0c0,0.7,0,1.4,0,2.1
	C147.8,89.5,139.7,89.5,131.5,89.5z"/>
<path class="st143" d="M131.5,77.7c-0.3-3.4,2.1-3.4,3.6-3.2c4.9,0.6,9.7,0.7,14.5-0.2c1.5-0.3,3.1,0,4.6,0c1.5,0,1.9,1.1,1.7,2.7
	c-0.3,0.7-0.8,1-1.4,1c-7.2,0.7-14.5-0.2-21.7,0.4C132.3,78.5,131.9,78.1,131.5,77.7z"/>
<path class="st81" d="M131.5,77.7c8.1-1,16.3,0.2,24.4-0.7c0,0.7,0,1.4,0,2.1c-1.4,1.1-3,0.6-4.5,0.6c-5.8,0.2-11.6,0.1-17.4,0.1
	c-0.9,0-1.7-0.2-2.5-0.7C131.5,78.6,131.5,78.2,131.5,77.7z"/>
<path class="st144" d="M131.5,54.8c-0.1-1.7,0.7-2,2-2.1c2.6-0.3,5.1,0.3,7.7,0.5c4.1,0.4,8-0.8,12-0.9c1.2,0,2.9-1.1,2.8,1.8
	c-0.5,0.2-1.1,0.6-1.6,0.6c-7.4,0.1-14.8,0.2-22.2,0.3C131.9,55.1,131.7,54.9,131.5,54.8z"/>
</svg>
